<?xml version="1.0" encoding="UTF-8"?>
<svg version="1.1" xmlns="http://www.w3.org/2000/svg" width="518" height="850">
<path d="M0 0 C0.33 77.55 0.66 155.1 1 235 C6.28 226.42 11.56 217.84 17 209 C24.0625 197.875 24.0625 197.875 27.46484375 192.56640625 C30.03902591 188.53582683 32.56300279 184.47725267 35.06640625 180.40234375 C35.74372803 179.3035791 36.4210498 178.20481445 37.11889648 177.07275391 C38.42823127 174.94486579 39.73142308 172.813182 41.02758789 170.67724609 C41.61918701 169.7177002 42.21078613 168.7581543 42.8203125 167.76953125 C43.33867676 166.91979736 43.85704102 166.07006348 44.39111328 165.19458008 C46.06587963 162.91013779 47.60706242 161.50044631 50 160 C56.32699607 159.37970627 62.32358886 161.65014567 68.125 163.90625 C70.99586773 164.99842794 73.87248393 165.92437014 76.8125 166.8125 C82.89391105 168.65072819 88.94819923 170.56656622 95 172.5 C102.98562686 175.04861875 110.97931678 177.5635283 119 180 C118.52280518 179.65855957 118.04561035 179.31711914 117.55395508 178.96533203 C108.68171962 172.60900829 99.87203297 166.20457184 91.25 159.51171875 C74.75227499 146.71787487 57.84295451 134.41951588 40.87353516 122.26196289 C30.19776534 114.59329602 30.19776534 114.59329602 29 111 C29.8093163 108.40724488 30.68338861 105.95314263 31.6875 103.4375 C31.967146 102.7165918 32.24679199 101.99568359 32.53491211 101.25292969 C33.34751885 99.16490707 34.17220743 97.08203958 35 95 C35.36867187 94.05769531 35.73734375 93.11539063 36.1171875 92.14453125 C37.80813228 87.8612703 39.58375466 83.61712389 41.375 79.375 C43.88139338 73.39348452 46.14282994 67.33773651 48.375 61.25 C50.00903688 56.88992168 51.82037026 52.60806532 53.62158203 48.31494141 C56.12351858 42.29806319 58.52450847 36.240441 60.9375 30.1875 C61.44197407 28.9237949 61.94653117 27.66012294 62.45117188 26.39648438 C63.45466092 23.88345885 64.45770838 21.37025775 65.46044922 18.85693359 C67.96942478 12.56960733 70.48502361 6.28492768 73 0 C78.48375713 0.65031081 82.32993759 1.9486679 86.9375 4.9375 C87.52595703 5.29779297 88.11441406 5.65808594 88.72070312 6.02929688 C90.1894636 6.95558833 91.60105344 7.97130095 93 9 C93 9.66 93 10.32 93 11 C94.02287109 11.34998047 94.02287109 11.34998047 95.06640625 11.70703125 C98.66700874 13.29398122 101.740198 15.42665475 104.9375 17.6875 C106.37331879 18.68804428 107.80953874 19.68801306 109.24609375 20.6875 C110.39827393 21.491875 110.39827393 21.491875 111.57373047 22.3125 C115.86466103 25.29689445 120.18196798 28.24251119 124.5 31.1875 C125.88082764 32.13012695 125.88082764 32.13012695 127.28955078 33.09179688 C134.26318152 37.84214181 141.28165692 42.52239312 148.3125 47.1875 C155.99678042 52.28764267 163.59905326 57.47738466 171.10693359 62.83349609 C176.27621386 66.51463105 181.52688393 70.05630756 186.81933594 73.55737305 C192.70094155 77.45072991 198.46612457 81.49908563 204.22338867 85.57348633 C210.74107668 90.16351374 217.35444787 94.59774338 224 99 C230.5375445 103.33070841 237.03793474 107.69761607 243.44921875 112.21337891 C248.26588222 115.58707179 253.13594156 118.88269143 258 122.1875 C259.08273193 122.92492432 260.16546387 123.66234863 261.28100586 124.42211914 C266.37287236 127.88630053 271.4771726 131.32839293 276.62890625 134.703125 C277.46873047 135.25460205 278.30855469 135.8060791 279.17382812 136.37426758 C280.73491324 137.39589759 282.29987856 138.41162942 283.86914062 139.4206543 C285.61382516 140.56288002 287.31305218 141.77410816 289 143 C289 143.66 289 144.32 289 145 C289.680625 145.23589844 290.36125 145.47179687 291.0625 145.71484375 C294.6514315 147.28500128 297.77776496 149.36313725 301 151.5625 C301.66225586 152.00940186 302.32451172 152.45630371 303.00683594 152.91674805 C308.18413469 156.4192935 313.32538762 159.97394498 318.45703125 163.54296875 C325.07999809 168.1447267 331.74846147 172.68073207 338.40820312 177.22900391 C341.02850016 179.01947439 343.64712778 180.81236739 346.265625 182.60546875 C357.28961467 190.14641262 368.36389285 197.60660248 379.49682617 204.9855957 C380.46338135 205.627146 381.42993652 206.26869629 382.42578125 206.9296875 C383.28598877 207.49929199 384.14619629 208.06889648 385.0324707 208.65576172 C387 210 387 210 388 211 C388.09883799 213.51753459 388.13177658 216.00763832 388.12304783 218.5256815 C388.12420167 219.32712447 388.12535552 220.12856744 388.12654433 220.95429656 C388.12921839 223.67459376 388.12468238 226.39483329 388.12025452 229.11512756 C388.12069006 231.07114613 388.12156465 233.02716465 388.12284368 234.98318285 C388.12509201 240.38527686 388.12106277 245.78735125 388.11606562 251.18944275 C388.11176612 257.00474876 388.11320719 262.82005357 388.1139679 268.63536072 C388.11449345 278.71977566 388.11134337 288.80418416 388.10573006 298.88859749 C388.0976193 313.46915027 388.09499693 328.04970056 388.09374207 342.63025527 C388.09163987 366.28353456 388.08489754 389.93681049 388.07543945 413.59008789 C388.06625981 436.57348615 388.05917385 459.55688348 388.05493164 482.5402832 C388.05473435 483.60235967 388.05473435 483.60235967 388.05453308 484.68589222 C388.05321459 491.79622416 388.05193877 498.9065561 388.05069422 506.01688805 C388.04815779 520.50234253 388.04533653 534.98779695 388.04234314 549.47325134 C388.04220585 550.1393158 388.04206856 550.80538026 388.04192711 551.49162849 C388.03272149 595.9944204 388.01685496 640.49721042 388 685 C387.12120178 685.26550156 386.24240356 685.53100311 385.3369751 685.80455017 C384.17679871 686.15771805 383.01662231 686.51088593 381.82128906 686.87475586 C380.67436584 687.22275742 379.52744263 687.57075897 378.34576416 687.92930603 C374.62800211 689.11904482 371.04423277 690.51404072 367.43945312 692.00439453 C363.09164045 693.7788521 358.66680215 695.34449731 354.25 696.9375 C352.80657227 697.46017456 352.80657227 697.46017456 351.33398438 697.9934082 C343.89695493 700.68378229 336.45143476 703.34979421 329 706 C326.72911295 706.81234984 324.45828094 707.62485359 322.1875 708.4375 C318.52373564 709.74801593 314.85814417 711.05211081 311.18359375 712.33203125 C302.86941942 715.23350634 294.61163985 718.2598097 286.375 721.375 C277.24739021 724.82701537 268.07565486 728.11708532 258.83740234 731.26123047 C257.9552002 731.56303223 257.07299805 731.86483398 256.1640625 732.17578125 C255.30458008 732.46791504 254.44509766 732.76004883 253.55957031 733.06103516 C250.94193344 734.02130141 248.44075964 735.15014841 245.8984375 736.29296875 C240.85836838 738.31768362 237.23407561 738.18647668 232 737 C231.11038574 736.80325684 230.22077148 736.60651367 229.30419922 736.40380859 C226.3363166 735.70765106 223.38744329 734.95597262 220.4375 734.1875 C218.45706033 733.6808759 216.47659097 733.17436784 214.49609375 732.66796875 C213.48272949 732.40677246 212.46936523 732.14557617 211.42529297 731.87646484 C204.95762228 730.22151561 198.47806248 728.61370628 192 727 C192.00785522 727.99811958 192.00785522 727.99811958 192.01586914 729.0164032 C192.06256407 735.94369135 192.05354836 742.86932023 192.01220703 749.79663086 C192.00409711 752.38158647 192.01018323 754.96662725 192.03076172 757.55151367 C192.05788818 761.2685532 192.03392914 764.98229699 192 768.69921875 C192.0194165 769.85459641 192.03883301 771.00997406 192.05883789 772.20036316 C191.91858036 780.00724446 191.91858036 780.00724446 189.36300659 782.7691803 C187.29323629 784.09897699 185.27613937 785.0735036 183 786 C181.98824707 786.51828369 180.97649414 787.03656738 179.93408203 787.57055664 C178.96841309 788.01262451 178.00274414 788.45469238 177.0078125 788.91015625 C175.90276367 789.4194165 174.79771484 789.92867676 173.65917969 790.45336914 C172.49290039 790.98438232 171.32662109 791.51539551 170.125 792.0625 C168.89460977 792.62763637 167.66447059 793.19331961 166.43457031 793.75952148 C163.89614905 794.92715826 161.35641051 796.09185015 158.81542969 797.25390625 C153.91941035 799.49329912 149.0293403 801.74551935 144.14013672 803.99975586 C141.93686527 805.01539323 139.73280606 806.02932404 137.52783203 807.04125977 C132.63438254 809.29249776 127.77315478 811.58188732 122.96728516 814.0144043 C119.11205331 815.9458477 115.20826523 817.77709851 111.3125 819.625 C110.41055908 820.05377441 109.50861816 820.48254883 108.5793457 820.92431641 C104.75625972 822.74174605 100.93228956 824.55731202 97.10839844 826.37304688 C94.30112367 827.70638283 91.49430315 829.04067161 88.6875 830.375 C87.40903198 830.98142334 87.40903198 830.98142334 86.10473633 831.60009766 C84.88306763 832.18090088 84.88306763 832.18090088 83.63671875 832.7734375 C82.85603027 833.14436523 82.0753418 833.51529297 81.27099609 833.89746094 C78.44799406 835.2679917 75.66755075 836.7151322 72.89770508 838.18994141 C71 839 71 839 66 840 C65.67 661.47 65.34 482.94 65 299 C63.35 298.67 61.7 298.34 60 298 C58.68 297.67 57.36 297.34 56 297 C55.67 478.17 55.34 659.34 55 846 C48 850 48 850 46 850 C46 666.19 46 482.38 46 293 C40.72 291.68 35.44 290.36 30 289 C25.875 287.5 25.875 287.5 24.12890625 286.79296875 C17.31631605 284.25543515 10.30721992 281.84690819 3 282 C3.01309658 321.40711638 3.05237062 360.81412685 3.12685562 400.22117714 C3.13562259 404.87132804 3.14417236 409.52147931 3.15258789 414.17163086 C3.15426695 415.09740989 3.15594602 416.02318891 3.15767596 416.97702185 C3.18436099 431.97599104 3.19344211 446.97492201 3.19604143 461.9739125 C3.19909862 477.35910902 3.22101815 492.74419488 3.26052457 508.12934142 C3.2843143 517.62629408 3.29331175 527.12302596 3.28351311 536.62000433 C3.27820593 543.1284639 3.2911858 549.63672526 3.3186629 556.14512839 C3.33398314 559.90276066 3.34112824 563.65994945 3.32659721 567.41759491 C3.31106408 571.48876898 3.33398223 575.55881343 3.36076355 579.62992859 C3.35009029 580.82155835 3.33941703 582.01318812 3.32842034 583.24092788 C3.3256536 589.65125105 3.3256536 589.65125105 6.37588978 595.10906696 C7.24184615 595.73307487 8.10780252 596.35708277 9 597 C10.66666667 598.66666667 12.33333333 600.33333333 14 602 C14.598125 602.556875 15.19625 603.11375 15.8125 603.6875 C17 605 17 605 17 607 C17.556875 607.226875 18.11375 607.45375 18.6875 607.6875 C21.66159588 609.37550036 23.72008865 611.46676517 26 614 C26 614.66 26 615.32 26 616 C26.66 616 27.32 616 28 616 C28 616.66 28 617.32 28 618 C28.99 618.33 29.98 618.66 31 619 C31 619.66 31 620.32 31 621 C31.99 621.33 32.98 621.66 34 622 C33.45337461 626.30551363 32.44382679 629.5608007 30.41015625 633.38671875 C29.8785791 634.39702148 29.34700195 635.40732422 28.79931641 636.44824219 C27.93959229 638.0516748 27.93959229 638.0516748 27.0625 639.6875 C26.47130371 640.80672852 25.88010742 641.92595703 25.27099609 643.07910156 C23.52100662 646.38984132 21.76099496 649.69510493 20 653 C18.37081813 656.08113795 16.74781809 659.16550692 15.125 662.25 C14.73771729 662.98371826 14.35043457 663.71743652 13.95141602 664.47338867 C10.0923275 671.79388805 6.29688198 679.14712868 2.5 686.5 C-2.53222968 696.24423794 -7.57838325 705.98018772 -12.71875 715.66796875 C-14.33433691 718.71738904 -15.91051491 721.78417441 -17.46875 724.86328125 C-17.87303223 725.65250977 -18.27731445 726.44173828 -18.69384766 727.25488281 C-19.4581685 728.74813636 -20.21367244 730.24594984 -20.95849609 731.74902344 C-23.46423076 736.60898873 -23.46423076 736.60898873 -25.82617188 738.33276367 C-28 739 -28 739 -30.27978516 738.28417969 C-31.10784668 737.83461914 -31.9359082 737.38505859 -32.7890625 736.921875 C-33.72226318 736.42494141 -34.65546387 735.92800781 -35.61694336 735.41601562 C-36.60960205 734.86623047 -37.60226074 734.31644531 -38.625 733.75 C-40.1574939 732.92532227 -40.1574939 732.92532227 -41.72094727 732.08398438 C-44.82429494 730.407466 -47.91388465 728.7080009 -51 727 C-52.34118896 726.26040039 -52.34118896 726.26040039 -53.70947266 725.50585938 C-56.83320213 723.78084175 -59.95573855 722.05436932 -63.06298828 720.29980469 C-66.98292509 718.08817086 -70.93875264 716.00227259 -74.97436523 714.00976562 C-78.53573518 712.2344461 -82.04553089 710.36130223 -85.5625 708.5 C-93.96454433 704.06353224 -102.38539384 699.66405111 -110.81860352 695.28710938 C-117.25986568 691.93552106 -123.6225732 688.47859643 -130 685 C-130 475.12 -130 265.24 -130 49 C-123.07 46.03 -116.14 43.06 -109 40 C-105.45955263 38.35622086 -101.91931399 36.71184006 -98.390625 35.04296875 C-92.54716422 32.30192063 -86.64353643 29.69357127 -80.75 27.0625 C-67.72025614 21.24390203 -54.73596723 15.32870212 -41.76464844 9.38110352 C-41.04821167 9.0527652 -40.3317749 8.72442688 -39.59362793 8.38613892 C-38.26729962 7.77815728 -36.94118675 7.1697053 -35.61535645 6.56063843 C-21.70788681 0.18396078 -17.50729449 0 0 0 Z M202 246 C201.9084944 290.63019495 201.83798667 335.26038 201.79573868 379.89065022 C201.79073571 385.15667387 201.78555843 390.42269733 201.78027344 395.6887207 C201.7792242 396.73711494 201.77817495 397.78550917 201.77709392 398.86567292 C201.75967684 415.85312205 201.72813198 432.84051717 201.69138882 449.82793423 C201.65401565 467.2516162 201.63177182 484.67526985 201.62364602 502.09899026 C201.61815072 512.85503252 201.60077882 523.61092213 201.56833413 534.36691741 C201.54723097 541.73732527 201.54079042 549.10765393 201.54599449 556.47808983 C201.54856283 560.73389903 201.54455702 564.98944103 201.5231781 569.24520302 C201.50375731 573.1395137 201.50270054 577.03337671 201.51640442 580.92770771 C201.51809888 582.33829431 201.51298651 583.74890848 201.50046727 585.15944054 C201.48446 587.07391626 201.49543879 588.98856109 201.50780869 590.90306377 C201.5062898 591.96741986 201.50477092 593.03177595 201.50320601 594.12838525 C202.1260412 597.72855505 203.5029327 599.3820348 206 602 C212.78256525 606.55990029 220.84617943 609.15943992 228.5 611.875 C229.37269531 612.18550293 230.24539063 612.49600586 231.14453125 612.81591797 C231.97339844 613.10096191 232.80226563 613.38600586 233.65625 613.6796875 C234.39681641 613.93476074 235.13738281 614.18983398 235.90039062 614.45263672 C238.28347446 615.16817744 238.28347446 615.16817744 242 615 C242.32058396 572.27272824 242.56720523 529.54559547 242.71491461 486.81735887 C242.73242409 481.77065264 242.75054464 476.72394879 242.76904297 471.67724609 C242.77271531 470.67255664 242.77638766 469.66786719 242.78017129 468.6327326 C242.84105719 452.37392339 242.95142191 436.11580859 243.08013915 419.85741106 C243.21115395 403.16937332 243.28884217 386.48169874 243.31723893 369.79316783 C243.33643052 359.49853417 243.39699276 349.2058633 243.51083054 338.91183403 C243.58495166 331.84860462 243.60717639 324.78638678 243.58901928 317.72279689 C243.58006761 313.64917921 243.59357961 309.57898491 243.66887665 305.50597954 C244.78169769 288.5552965 244.78169769 288.5552965 238.96097183 273.49913788 C236.1526951 270.78819012 233.15262432 268.76851629 229.71084046 266.94795942 C227.13762485 265.52216664 224.98309526 263.65135997 222.75 261.75 C221.96625 261.13125 221.1825 260.5125 220.375 259.875 C217.03135139 257.23527742 213.72881994 254.54488062 210.421875 251.859375 C207.69810042 249.76821903 204.86359339 247.89368243 202 246 Z M251 286 C251 395.23 251 504.46 251 617 C254.3 617.66 257.6 618.32 261 619 C261.20529941 577.73320741 261.36457956 536.46648722 261.45958797 495.19928479 C261.47084437 490.32767991 261.48249326 485.45607603 261.49438477 480.58447266 C261.49674556 479.61462134 261.49910635 478.64477002 261.50153869 477.64552927 C261.54070401 461.94035035 261.61166686 446.23546783 261.69437516 430.53046477 C261.77852981 414.4164678 261.82852702 398.30262609 261.84679645 382.18841839 C261.85914771 372.24435154 261.89816025 362.30112243 261.9712482 352.35731345 C262.01881113 345.53905879 262.03320364 338.7212374 262.0215124 331.90282887 C262.01574551 327.96819543 262.02460118 324.03502596 262.07284927 320.10065269 C262.11672994 316.49606704 262.11881545 312.89392565 262.08809005 309.28922617 C262.08250063 307.37230601 262.12125488 305.45541369 262.16173178 303.53891277 C262.06746903 296.99021669 262.06746903 296.99021669 258.95914257 291.40365982 C255.43845177 287.78964022 255.43845177 287.78964022 251 286 Z " fill="#E8E2D0" transform="translate(130,0)"/>
</svg>
