<?xml version="1.0" encoding="UTF-8"?>
<svg version="1.1" xmlns="http://www.w3.org/2000/svg" width="3981" height="585">
<path d="M0 0 C0.33 52.47 0.66 104.94 1 159 C5.59297295 152.28223763 5.59297295 152.28223763 9 145 C9.66 145 10.32 145 11 145 C11.25910156 144.29359375 11.51820312 143.5871875 11.78515625 142.859375 C13.8837035 137.92002906 16.89876337 133.51937893 19.765625 129.00048828 C21.11264926 126.81743511 22.38418412 124.59858772 23.65625 122.37109375 C24.58262944 120.80947806 25.50970568 119.24827549 26.4375 117.6875 C27.06386353 116.54812988 27.06386353 116.54812988 27.70288086 115.38574219 C30.77171586 110.34536754 30.77171586 110.34536754 34.0378418 109.42700195 C39.64994088 109.21946201 44.73062865 110.8913265 49.9375 112.8125 C51.50740092 113.36575261 53.07771143 113.91784441 54.6484375 114.46875 C55.39448242 114.73429687 56.14052734 114.99984375 56.90917969 115.2734375 C60.34996957 116.469116 63.84297531 117.4685315 67.34765625 118.45703125 C69 119 69 119 70 120 C71.66617115 120.04063832 73.33388095 120.042721 75 120 C72.54301039 118.18565366 70.08448741 116.37345469 67.625 114.5625 C66.57699219 113.7880957 66.57699219 113.7880957 65.5078125 112.99804688 C64.8375 112.50498047 64.1671875 112.01191406 63.4765625 111.50390625 C62.85861816 111.04830322 62.24067383 110.5927002 61.60400391 110.12329102 C59.98664761 108.93217767 59.98664761 108.93217767 58 108 C58 107.34 58 106.68 58 106 C57.30519531 105.77183594 56.61039063 105.54367188 55.89453125 105.30859375 C52.37831402 103.71894088 49.63808621 101.49823299 46.6875 99.0625 C40.67497848 94.19456025 34.44663723 89.77319028 27.97924805 85.52954102 C26.28665163 84.40079406 24.63821327 83.20632068 23 82 C23 81.34 23 80.68 23 80 C21.02 79.01 21.02 79.01 19 78 C20.25133405 72.08460265 22.2553829 66.83435184 24.640625 61.28515625 C26.07049377 57.82964006 27.32871591 54.34249336 28.5625 50.8125 C30.4646129 45.40336644 32.5784109 40.19328746 35 35 C37.26011784 30.04926568 39.30923913 25.17795517 41 20 C42.29711552 16.65203967 43.65152118 13.32754125 45 10 C45.75088061 8.12535248 46.50091606 6.25036617 47.25 4.375 C47.83333333 2.91666667 48.41666667 1.45833333 49 0 C54.88854204 -0.67944716 57.80940535 1.3915788 62.375 4.6875 C63.69592929 5.60905597 65.01753831 6.52963846 66.33984375 7.44921875 C67.2831958 8.1131665 67.2831958 8.1131665 68.24560547 8.79052734 C70.42105145 10.2902712 72.66436515 11.65401139 74.9375 13 C75.948125 13.66 76.95875 14.32 78 15 C78 15.66 78 16.32 78 17 C78.886875 17.2475 79.77375 17.495 80.6875 17.75 C84.18754821 19.07077291 86.12118956 20.64307917 89 23 C91.00842488 24.43420407 93.03021376 25.8498127 95.0625 27.25 C95.91557739 27.8380542 95.91557739 27.8380542 96.78588867 28.43798828 C101.41470778 31.61969979 106.08844917 34.73170605 110.76953125 37.8359375 C115.22311056 40.81935097 119.63438395 43.86287492 124.04223633 46.91333008 C127.23358304 49.11738403 130.43413299 51.29846051 133.6875 53.41015625 C134.780625 54.12042969 135.87375 54.83070312 137 55.5625 C137.969375 56.18253906 138.93875 56.80257812 139.9375 57.44140625 C140.618125 57.95574219 141.29875 58.47007813 142 59 C142 59.66 142 60.32 142 61 C142.59280762 61.12205811 143.18561523 61.24411621 143.79638672 61.36987305 C147.3555325 62.38761681 150.14227357 64.68900567 153.125 66.8125 C154.56033032 67.8176463 155.99656276 68.82150536 157.43359375 69.82421875 C158.55483643 70.60804932 158.55483643 70.60804932 159.69873047 71.40771484 C163.49311678 74.03311136 167.34065666 76.57737279 171.1875 79.125 C178.52219018 83.9950535 185.78015834 88.96077041 193 94 C200.23567626 99.03727701 207.49283466 104.03188228 214.85546875 108.8828125 C217.3878062 110.58781486 219.89029893 112.32159666 222.38671875 114.078125 C228.73016114 118.53068232 235.14289609 122.87959478 241.55957031 127.22558594 C243.62935152 128.62794833 245.6975161 130.03267295 247.765625 131.4375 C249.10667317 132.34649826 250.44781577 133.25535724 251.7890625 134.1640625 C252.697202 134.78143784 252.697202 134.78143784 253.62368774 135.4112854 C254.21144989 135.80874969 254.79921204 136.20621399 255.40478516 136.61572266 C255.94883641 136.99616063 256.49288766 137.3765986 257.05342531 137.768565 C258.96179884 139.05119405 258.96179884 139.05119405 261.06727362 139.86768025 C263.51921766 140.99643993 265.14342641 142.02624575 267 144 C268.21607726 148.32759144 268.04458651 152.58394179 267.96203613 157.05342102 C267.96552523 158.41068389 267.97253082 159.76794152 267.98274946 161.12517041 C268.00064619 164.85428009 267.96863388 168.58155316 267.92852497 172.31042874 C267.89399581 176.33150935 267.90566684 180.35248534 267.91174316 184.37367249 C267.91593927 191.34033592 267.8908274 198.30640025 267.84584045 205.27291298 C267.78083979 215.34522875 267.75999064 225.41725466 267.74993652 235.48975744 C267.73242488 251.83130789 267.6791786 268.17253898 267.60351562 284.51391602 C267.53009003 300.38857423 267.4734595 316.26314572 267.43945312 332.13793945 C267.43735134 333.11636039 267.43524955 334.09478132 267.43308407 335.10285137 C267.42264382 340.01127302 267.41253414 344.91969529 267.40258884 349.82811797 C267.31964697 390.55230082 267.17873486 431.27613214 267 472 C265.75295288 472.42297363 265.75295288 472.42297363 264.48071289 472.85449219 C261.35406796 473.91723377 258.2287623 474.98375227 255.10424805 476.05273438 C253.75970243 476.51190241 252.41466132 476.96962247 251.0690918 477.42578125 C244.21461167 479.75054357 237.41324613 482.06616154 230.86645508 485.18139648 C228.81993876 486.07897258 226.77507037 486.7083377 224.625 487.3125 C219.75824032 488.70300277 215.05039421 490.4170622 210.3125 492.1875 C201.95057187 495.31155201 193.54039717 498.27402237 185.09301758 501.15893555 C180.5857863 502.70850863 176.18921181 504.34014489 171.81640625 506.23828125 C162.40964144 509.97211684 154.41124797 507.0728918 145 504.5 C140.71 503.345 136.42 502.19 132 501 C132 513.21 132 525.42 132 538 C124.08 541.96 124.08 541.96 116 546 C111.22224401 548.47609924 111.22224401 548.47609924 106.453125 550.96875 C104 552 104 552 100 552 C100 552.66 100 553.32 100 554 C98.824375 554.4125 97.64875 554.825 96.4375 555.25 C93.02561898 556.5227332 90.01034247 558.11001356 86.87890625 559.98046875 C84.82023683 561.09754301 82.7525851 561.92003453 80.5625 562.75 C75.89710685 564.55205262 71.46149487 566.68907298 67 568.9375 C66.3100293 569.28458008 65.62005859 569.63166016 64.90917969 569.98925781 C61.90016419 571.51022 58.9050983 573.05028464 55.92578125 574.62890625 C55.06339844 575.08136719 54.20101562 575.53382813 53.3125 576 C52.58675781 576.391875 51.86101562 576.78375 51.11328125 577.1875 C49 578 49 578 44 578 C44 455.24 44 332.48 44 206 C42.02 205.67 40.04 205.34 38 205 C38 329.74 38 454.48 38 583 C34 585 34 585 31 585 C31 458.61 31 332.22 31 202 C27.04 201.01 23.08 200.02 19 199 C15.0140584 197.93779275 11.03408578 196.85593139 7.0546875 195.76953125 C4.20178659 194.91857138 4.20178659 194.91857138 2 195 C2 264.96 2 334.92 2 407 C2.66 407 3.32 407 4 407 C4 407.99 4 408.98 4 410 C4.99 410.33 5.98 410.66 7 411 C8.71358643 412.61838719 10.3707726 414.29671681 12 416 C12.62003906 416.59941406 13.24007812 417.19882812 13.87890625 417.81640625 C14.51699219 418.43386719 15.15507813 419.05132812 15.8125 419.6875 C16.71935547 420.55955078 16.71935547 420.55955078 17.64453125 421.44921875 C19 423 19 423 19 425 C19.99 425.33 20.98 425.66 22 426 C22.66 426.33 23.32 426.66 24 427 C23.4943443 432.67959706 21.22155371 436.80471245 18.5 441.6875 C17.67515617 443.19035013 16.85216036 444.69421642 16.03125 446.19921875 C15.66580078 446.85752686 15.30035156 447.51583496 14.92382812 448.1940918 C13.86687959 450.14848305 13.86687959 450.14848305 13 453 C12.34 453 11.68 453 11 453 C10.85304688 453.53367187 10.70609375 454.06734375 10.5546875 454.6171875 C8.90865658 460.08503735 6.59493045 464.53781059 3.5625 469.359375 C0.98100732 473.72209763 -1.00122825 478.3479914 -3 483 C-3.66 483 -4.32 483 -5 483 C-5.0721875 483.64710938 -5.144375 484.29421875 -5.21875 484.9609375 C-6.31468988 489.22414365 -8.38381351 492.78572668 -10.5 496.625 C-11.32492077 498.1369291 -12.14791939 499.64990894 -12.96875 501.1640625 C-13.51692383 502.16107178 -13.51692383 502.16107178 -14.07617188 503.17822266 C-15.13071345 505.14709356 -15.13071345 505.14709356 -16 508 C-17.69970703 508.85522461 -17.69970703 508.85522461 -20 509 C-22.71044922 507.95532227 -22.71044922 507.95532227 -25.8046875 506.31640625 C-26.93890137 505.72214844 -28.07311523 505.12789063 -29.24169922 504.515625 C-30.45298951 503.86493696 -31.66408631 503.21388861 -32.875 502.5625 C-34.11039448 501.90931322 -35.3462356 501.2569705 -36.58251953 500.60546875 C-43.8021627 496.78566748 -50.92091384 492.81653533 -57.96875 488.6875 C-63.16115575 485.79688237 -68.55960465 483.38582122 -74 481 C-74 480.34 -74 479.68 -74 479 C-75.65 478.67 -77.3 478.34 -79 478 C-82.63 476.02 -86.26 474.04 -90 472 C-90 327.13 -90 182.26 -90 33 C-84.06 30.36 -78.12 27.72 -72 25 C-69.07125 23.68 -66.1425 22.36 -63.125 21 C-61.46616573 20.26167404 -59.80731449 19.52338621 -58.1484375 18.78515625 C-53.94251696 16.90051636 -49.77236028 14.94994145 -45.61068726 12.9703064 C-42.4596529 11.4783957 -39.29676294 10.01265507 -36.13226318 8.54956055 C-34.56644734 7.8186245 -33.00554996 7.07704069 -31.45025635 6.32397461 C-29.22410784 5.2479918 -26.98234809 4.21305181 -24.734375 3.18359375 C-24.09295563 2.86216904 -23.45153625 2.54074432 -22.79067993 2.20957947 C-14.8825956 -1.30733119 -9.68095189 0 0 0 Z M76 121 C76.33 121.66 76.66 122.32 77 123 C77.66 122.67 78.32 122.34 79 122 C78.01 121.67 77.02 121.34 76 121 Z M139 170 C138.88596427 200.48943134 138.79746579 230.97882366 138.74467335 261.46841822 C138.73841974 265.0670806 138.73194813 268.66574255 138.7253418 272.2644043 C138.72403024 272.98084029 138.72271869 273.69727628 138.7213674 274.43542246 C138.69960423 286.03952533 138.66017774 297.64350449 138.61423602 309.24753394 C138.56749662 321.152231 138.53970996 333.05686323 138.52955753 344.96164829 C138.52330943 351.64931266 138.50764928 358.33675169 138.47134972 365.02432823 C138.43747659 371.31569537 138.42692968 377.6066655 138.43446159 383.89811516 C138.43308318 386.21005662 138.42309952 388.522011 138.40397263 390.83387375 C138.37917121 393.98554038 138.38504854 397.13569929 138.39872742 400.28739929 C138.38416321 401.20666268 138.369599 402.12592606 138.35459346 403.07304591 C138.40728339 407.55049695 138.52257304 409.39545568 141.38084126 413.01475239 C143.91689252 414.9370069 146.21521564 416.34816925 149.125 417.625 C149.97320312 418.00914062 150.82140625 418.39328125 151.6953125 418.7890625 C156.36238781 420.49922012 161.20460642 421.69216539 166 423 C166 346.77 166 270.54 166 192 C164.68 191.34 163.36 190.68 162 190 C162 189.34 162 188.68 162 188 C160.05624046 186.18371224 160.05624046 186.18371224 157.625 184.375 C156.40683594 183.42753906 156.40683594 183.42753906 155.1640625 182.4609375 C153.15890121 180.81349192 153.15890121 180.81349192 151 181 C151 180.34 151 179.68 151 179 C149.42945794 177.58303493 147.79253336 176.23893184 146.125 174.9375 C145.22007812 174.22464844 144.31515625 173.51179687 143.3828125 172.77734375 C141.14440993 170.99874701 141.14440993 170.99874701 139 170 Z M173 198 C172.97720982 226.77404052 172.95950192 255.54807999 172.94893467 284.32212776 C172.9476839 287.71564703 172.94638958 291.1091663 172.94506836 294.50268555 C172.94480605 295.17830217 172.94454374 295.8539188 172.94427348 296.55000866 C172.93991675 307.50363169 172.93202919 318.45724949 172.9228472 329.41086941 C172.91351073 340.642067 172.9080193 351.87326197 172.90591151 363.10446364 C172.90460397 369.41631144 172.90151545 375.72814737 172.89426994 382.03999138 C172.88751365 387.9733874 172.88538224 393.90676659 172.88689232 399.84016609 C172.88661581 402.02476213 172.88460839 404.20935869 172.88079453 406.39395142 C172.87586338 409.36262588 172.87699956 412.33123573 172.87974548 415.2999115 C172.87683264 416.17635297 172.8739198 417.05279445 172.87091869 417.95579475 C172.50406807 421.78689312 172.50406807 421.78689312 174 425 C175.66617115 425.04063832 177.33388095 425.042721 179 425 C179.1400686 396.14122141 179.24592145 367.28249366 179.31087303 338.42344379 C179.3170321 335.75763744 179.32324016 333.09183129 179.32958984 330.42602539 C179.33116371 329.76342046 179.33273757 329.10081554 179.33435912 328.41813167 C179.35884948 318.35393933 179.40098325 308.28991684 179.45263672 298.22583008 C179.51237947 286.54913816 179.55113517 274.87259903 179.56453097 263.19575852 C179.5723633 257.01102837 179.59081167 250.82673539 179.63438034 244.64214516 C179.67503986 238.82348653 179.68768225 233.00544606 179.67864609 227.18665886 C179.68029969 225.04886137 179.69227374 222.91104367 179.71523285 220.77336884 C179.74501537 217.85789887 179.7379371 214.94477344 179.7215271 212.0292511 C179.73900415 211.18002478 179.7564812 210.33079847 179.77448785 209.45583802 C179.74400984 205.04797722 179.74400984 205.04797722 177.61599088 201.33367193 C175.80714536 199.75484989 175.80714536 199.75484989 173 198 Z " fill="#E8E2D0" transform="translate(90,0)"/>
<path d="M0 0 C6.50967957 5.67747622 6.50967957 5.67747622 7.8125 9.5859375 C9.02157902 8.92062418 10.2296795 8.25353283 11.4375 7.5859375 C12.2625 7.13089844 13.0875 6.67585938 13.9375 6.20703125 C15.97348719 5.05902217 17.99292974 3.88144083 20 2.68359375 C46.30182624 -12.88828292 80.06942056 -20.10017045 110.3125 -12.9140625 C121.91404228 -9.54664048 133.41477879 -4.26880255 141.8125 4.5859375 C142.47378906 5.21628906 143.13507812 5.84664062 143.81640625 6.49609375 C155.72400093 18.58444888 160.12190142 35.67607079 160.1857605 52.26048279 C160.17497467 53.37899124 160.16418884 54.49749969 160.15307617 55.64990234 C160.15351425 56.87114304 160.15395233 58.09238373 160.15440369 59.35063171 C160.15269109 62.64944323 160.1378105 65.94785582 160.11668181 69.24658918 C160.09772655 72.7125212 160.09614992 76.17846384 160.09260559 79.6444397 C160.08333978 86.18537604 160.05880141 92.72615912 160.02855712 99.26702845 C159.99152401 107.45663522 159.975267 115.6462677 159.95898438 123.8359375 C159.92989933 138.41938974 159.86978144 153.00250832 159.8125 167.5859375 C135.7225 167.5859375 111.6325 167.5859375 86.8125 167.5859375 C86.76351562 159.72394531 86.71453125 151.86195313 86.6640625 143.76171875 C86.62865096 138.76235741 86.59267649 133.76301267 86.5546875 128.76367188 C86.49452623 120.83946477 86.43637848 112.91527346 86.390625 104.9909668 C86.35358081 98.59774618 86.30717016 92.20465419 86.25443649 85.81154442 C86.23599378 83.38011127 86.22084905 80.94865065 86.20915604 78.51717567 C87.48758293 54.76872115 87.48758293 54.76872115 78.27734375 34.0625 C70.52146066 27.94966276 61.28154771 27.91194461 51.8125 28.5859375 C42.07344064 29.89223895 28.91439229 34.48404521 21.8125 41.5859375 C21.51392354 43.89404841 21.51392354 43.89404841 21.57199097 46.6098938 C21.56924164 47.67282654 21.56649231 48.73575928 21.56365967 49.8309021 C21.57085022 51.0019046 21.57804077 52.1729071 21.58544922 53.37939453 C21.58515717 54.60863647 21.58486511 55.83787842 21.58456421 57.10437012 C21.58572094 60.4802724 21.59576911 63.85593175 21.60971212 67.23179102 C21.62219282 70.7578628 21.62338788 74.28393762 21.62576294 77.81002808 C21.63198556 84.48944425 21.6484069 91.16879516 21.66846192 97.84818256 C21.69298654 106.19695294 21.70395231 114.54573386 21.71484375 122.89453125 C21.734338 137.79171754 21.77439981 152.68876136 21.8125 167.5859375 C-2.2775 167.5859375 -26.3675 167.5859375 -51.1875 167.5859375 C-51.23648438 159.31660156 -51.28546875 151.04726563 -51.3359375 142.52734375 C-51.37583501 136.61451619 -51.41695333 130.70170698 -51.45983124 124.78890133 C-51.51517691 117.13443803 -51.56766674 109.47999051 -51.609375 101.82543945 C-51.64595178 95.11452622 -51.69268897 88.40375334 -51.74556351 81.69294548 C-51.76406524 79.13539773 -51.7791887 76.57782318 -51.79084396 74.02023506 C-51.80777845 70.43206142 -51.83683149 66.84417183 -51.86865234 63.25610352 C-51.87081253 62.20377533 -51.87297272 61.15144714 -51.87519836 60.06723022 C-51.98259445 50.55838975 -52.9974187 42.1268929 -59.1875 34.5859375 C-67.03206842 28.10564185 -75.40124321 27.89660532 -85.1875 28.5859375 C-94.29310609 29.80565397 -101.90208263 33.69994408 -109.9140625 37.94140625 C-113.1875 39.5859375 -113.1875 39.5859375 -115.1875 39.5859375 C-115.1875 81.8259375 -115.1875 124.0659375 -115.1875 167.5859375 C-139.2775 167.5859375 -163.3675 167.5859375 -188.1875 167.5859375 C-188.1875 109.1759375 -188.1875 50.7659375 -188.1875 -9.4140625 C-166.0775 -9.4140625 -143.9675 -9.4140625 -121.1875 -9.4140625 C-118.1875 1.5859375 -118.1875 1.5859375 -118.1875 5.5859375 C-117.16011719 4.99425781 -116.13273437 4.40257812 -115.07421875 3.79296875 C-80.91478284 -15.74975249 -34.0766955 -25.80808556 0 0 Z " fill="#E8E2D0" transform="translate(3108.1875,209.4140625)"/>
<path d="M0 0 C24.42 0 48.84 0 74 0 C75.99882607 5.33020285 77.83878602 10.54457448 79.41674805 15.99121094 C79.74925819 17.12518814 79.74925819 17.12518814 80.08848572 18.28207397 C80.81582461 20.76532866 81.53882634 23.24982262 82.26171875 25.734375 C82.77611083 27.49439421 83.29074885 29.25434156 83.80561829 31.01422119 C84.88584435 34.70881578 85.96410244 38.40397666 87.04077148 42.09960938 C88.39508952 46.74822806 89.75266188 51.39588721 91.11153984 56.04317474 C97.14415533 76.6756801 103.13299056 97.31971773 109 118 C114.23772316 101.36554012 119.31577697 84.68754504 124.27734375 67.96875 C124.54776112 67.0577655 124.81817848 66.14678101 125.09679031 65.20819092 C127.33368052 57.67042744 129.56658379 50.13148421 131.79821777 42.59216309 C133.48206236 36.9036275 135.16774526 31.21564385 136.85614204 25.52845764 C137.63681746 22.89610301 138.41475413 20.26294917 139.19261169 17.62976074 C139.6685443 16.02591675 140.14461587 14.42211398 140.62084961 12.81835938 C140.83328812 12.09643402 141.04572662 11.37450867 141.26460266 10.63070679 C142.35114186 6.98304338 143.58176553 3.54558618 145 0 C170.08 0 195.16 0 221 0 C231.36957211 33.41306568 231.36957211 33.41306568 235.55078125 47.52734375 C236.02144845 49.11149467 236.49225216 50.69560505 236.96318054 52.27967834 C237.92941191 55.53110425 238.89452404 58.78285909 239.85864258 62.03491211 C241.08150226 66.15962988 242.30660654 70.28367679 243.53245258 74.4075079 C244.49656999 77.65130924 245.45988613 80.89534809 246.42293358 84.13946724 C246.87441682 85.66024953 247.32605167 87.18098682 247.77785683 88.70167351 C250.57482019 98.1188636 253.32129741 107.54842593 256 117 C257.75614045 113.76943033 258.82367743 110.54267472 259.85668945 107.01782227 C260.21541641 105.80048904 260.57414337 104.58315582 260.94374084 103.32893372 C261.33367863 101.99145108 261.72352262 100.6539411 262.11328125 99.31640625 C262.52353027 97.91862569 262.93409506 96.52093777 263.34495544 95.12333679 C264.44480385 91.37830839 265.53983353 87.6318871 266.63383484 83.88514709 C267.53705236 80.79399747 268.44307761 77.70367399 269.34913445 74.61335564 C276.63492591 49.76204005 283.84043677 24.88800551 291 0 C315.42 0 339.84 0 365 0 C362.75007538 10.12466078 362.75007538 10.12466078 361.11499023 14.60009766 C360.74889145 15.61081329 360.38279266 16.62152893 360.00559998 17.66287231 C359.61058792 18.73576508 359.21557587 19.80865784 358.80859375 20.9140625 C358.39178848 22.06019012 357.97498322 23.20631775 357.54554749 24.38717651 C356.41639351 27.48924042 355.28239014 30.58947751 354.14627075 33.68899536 C352.94742452 36.96363931 351.7551819 40.24068509 350.5625 43.51757812 C348.86379086 48.18331661 347.16338302 52.84842801 345.46048164 57.51263809 C341.78656241 67.57582059 338.14066706 77.64902965 334.5022583 87.72509766 C332.81443572 92.39808748 331.12385894 97.07008076 329.43359375 101.7421875 C327.04131734 108.35560916 324.64950892 114.96919982 322.25830078 121.58300781 C320.07732562 127.61529382 317.89568128 133.64733743 315.71339607 139.67914963 C314.5257726 142.96180232 313.33844607 146.24456169 312.15185547 149.52758789 C310.83262393 153.17757848 309.51206657 156.82708862 308.19140625 160.4765625 C307.7963942 161.5701004 307.40138214 162.66363831 306.99440002 163.79031372 C306.62830124 164.80133148 306.26220245 165.81234924 305.88500977 166.85400391 C305.56766373 167.73150299 305.25031769 168.60900208 304.9233551 169.51309204 C303.99083078 172.02469581 302.99500512 174.5124872 302 177 C275.27 177 248.54 177 221 177 C215.61933134 160.85799403 210.27901366 144.74268502 205.22338867 128.50186157 C203.52392147 123.04258425 201.81600141 117.58594886 200.109375 112.12890625 C199.76712891 111.03376205 199.42488281 109.93861786 199.07226562 108.81028748 C195.57792919 97.63491519 192.04370771 86.47229925 188.5 75.3125 C188.21660767 74.41980408 187.93321533 73.52710815 187.64123535 72.60736084 C186.09526635 67.73788751 184.54821782 62.86875878 183 58 C175.39254113 80.27698894 168.3332942 102.71757099 161.3203125 125.1875 C155.91488802 142.46921877 150.45269351 159.7331372 145 177 C118.27 177 91.54 177 64 177 C53.6784865 149.47596401 53.6784865 149.47596401 50.01171875 139.24609375 C49.37976593 137.48996765 49.37976593 137.48996765 48.73504639 135.69836426 C47.61567366 132.58745221 46.49758218 129.47608345 45.37995529 126.36454391 C43.20978823 120.32515441 41.03419085 114.28771659 38.859375 108.25 C38.61506178 107.57159498 38.37074856 106.89318996 38.11903191 106.19422722 C32.92195411 91.76435455 27.68459258 77.34926205 22.4375 62.9375 C20.80583812 58.4544822 19.17437153 53.97139334 17.54296875 49.48828125 C17.15652695 48.42636063 16.77008514 47.36444 16.37193298 46.27033997 C12.94330314 36.84717998 9.51901934 27.42245855 6.10720825 17.99319458 C5.5417589 16.43103733 4.97575141 14.86908199 4.40914917 13.30734253 C3.65143438 11.21846916 2.89571221 9.12888685 2.140625 7.0390625 C1.72329102 5.88615723 1.30595703 4.73325195 0.87597656 3.54541016 C0 1 0 1 0 0 Z " fill="#E8E2D0" transform="translate(2275,200)"/>
<path d="M0 0 C24.09 0 48.18 0 73 0 C73 81.18 73 162.36 73 246 C51.55 246 30.1 246 8 246 C5.525 240.06 5.525 240.06 3 234 C2.21238281 234.51949219 1.42476562 235.03898438 0.61328125 235.57421875 C-25.92929543 252.56775009 -58.61912253 255.40196567 -89.0390625 248.78759766 C-107.08027677 244.5328039 -121.95103009 236.03043444 -135 223 C-136.11375 221.90365234 -136.11375 221.90365234 -137.25 220.78515625 C-153.6568015 203.57724139 -159.46234003 179.14025093 -159.2109375 155.9609375 C-157.79925393 129.45265705 -148.35282871 106.23270833 -128.75 87.8125 C-105.66318126 68.27443233 -74.64710373 61.14962191 -44.93652344 63.33959961 C-28.60872273 64.85823516 -14.61075558 69.69462221 0 77 C0 51.59 0 26.18 0 0 Z M-72.1484375 117.6484375 C-83.76872973 132.40669895 -85.07886123 152.61924358 -83.43359375 170.65625 C-81.89143991 182.5488958 -78.15300344 194.22067406 -69.015625 202.50390625 C-57.78111113 210.8427024 -43.42696912 212.04343364 -29.94628906 210.15917969 C-20.9290904 208.65557401 -12.25580964 205.89603634 -4.27514648 201.40551758 C-3.47229721 200.95509598 -2.66944794 200.50467438 -1.8422699 200.04060364 C-0.9303463 199.52550484 -0.9303463 199.52550484 0 199 C0.23185425 188.28223504 0.40945696 177.56506775 0.51812172 166.84530449 C0.57028137 161.86732196 0.6410001 156.89105657 0.75439453 151.9140625 C0.86317723 147.10932738 0.92286542 142.30624163 0.94877243 137.50037003 C0.96722914 135.66852975 1.00327537 133.8367784 1.05730057 132.00564194 C1.74126316 122.1049856 1.74126316 122.1049856 -2.18745422 113.55871582 C-4.76851839 111.97991401 -7.12812879 110.92693256 -10 110 C-10.98871094 109.54109375 -11.97742187 109.0821875 -12.99609375 108.609375 C-33.19520128 101.49928915 -56.49204243 100.99402521 -72.1484375 117.6484375 Z " fill="#E8E2D0" transform="translate(3908,131)"/>
<path d="M0 0 C24.09 0 48.18 0 73 0 C73.33 27.06 73.66 54.12 74 82 C80.93 78.04 80.93 78.04 88 74 C91.15345862 72.59708337 94.1417904 71.3184257 97.375 70.1875 C98.18622314 69.90253662 98.99744629 69.61757324 99.83325195 69.32397461 C112.97249445 64.85408235 125.30511428 63.72287301 139.0625 63.625 C139.7371933 63.61687286 140.4118866 63.60874573 141.10702515 63.60037231 C160.5084251 63.42560086 178.00113416 67.66305533 194 79 C195.051875 79.7425 196.10375 80.485 197.1875 81.25 C209.213651 93.0089032 215.87186025 108.59971813 216.36076355 125.38471985 C216.36930316 127.63448482 216.36184594 129.88435257 216.34057617 132.1340332 C216.34101425 133.37463501 216.34145233 134.61523682 216.34190369 135.89343262 C216.34018879 139.25021892 216.32528881 142.60643103 216.30418181 145.96311593 C216.28525049 149.48777798 216.28365176 153.0124501 216.28010559 156.53715515 C216.27083291 163.1914545 216.24628492 169.84560353 216.21605712 176.4998371 C216.17604569 185.50597619 216.16001956 194.51215726 216.14255047 203.518363 C216.11445948 217.67902095 216.05465865 231.83936191 216 246 C191.91 246 167.82 246 143 246 C142.96261719 237.83765625 142.92523437 229.6753125 142.88671875 221.265625 C142.85256916 215.41924997 142.81657319 209.57290901 142.77792263 203.72656441 C142.7281701 196.16391925 142.68269346 188.60132997 142.65356445 181.03857422 C142.62800043 174.4054216 142.58700864 167.77247717 142.53681374 161.1394577 C142.52019257 158.61509771 142.50864884 156.09069876 142.50238609 153.56629181 C142.49269345 150.01693868 142.46457164 146.46815622 142.43237305 142.91894531 C142.43380814 141.88675369 142.43524323 140.85456207 142.4367218 139.79109192 C142.32223404 130.80490607 141.45052204 119.78131804 135 113 C124.44216645 106.45056427 113.2517043 105.60083461 101.17578125 107.6484375 C93.12458973 109.6170674 86.09667376 112.6368189 78.828125 116.51171875 C76 118 76 118 73 119 C73 160.91 73 202.82 73 246 C48.91 246 24.82 246 0 246 C0 164.82 0 83.64 0 0 Z " fill="#E8E2D0" transform="translate(1178,131)"/>
<path d="M0 0 C2.93504265 0.01610516 5.86870903 0.00002819 8.80371094 -0.01904297 C24.87336588 -0.03785429 40.97483262 1.23584835 56.37402344 6.14111328 C57.60838135 6.52626099 57.60838135 6.52626099 58.86767578 6.91918945 C70.6892936 10.76601655 80.17088632 16.48203847 88.93652344 25.39111328 C89.52175781 25.97763672 90.10699219 26.56416016 90.70996094 27.16845703 C102.85298808 40.26690001 103.37694896 57.34636596 103.37792969 74.20361328 C103.38972803 75.98910591 103.40309817 77.77458878 103.41795349 79.56005859 C103.45384798 84.22030923 103.47426055 88.88047311 103.48950195 93.54083252 C103.51450672 101.02607352 103.5540533 108.5111233 103.61140251 115.9961853 C103.62767458 118.60028647 103.63150196 121.20420399 103.63441467 123.80834961 C103.64418973 125.40364907 103.6544528 126.99894564 103.6652832 128.59423828 C103.66273026 129.31324814 103.66017731 130.032258 103.657547 130.77305603 C103.69793217 134.73369217 104.01975545 137.89064364 105.93652344 141.39111328 C109.76148135 144.21607119 109.76148135 144.21607119 118.93652344 145.39111328 C118.93652344 157.93111328 118.93652344 170.47111328 118.93652344 183.39111328 C94.53476153 187.1452305 67.0915727 189.8659772 45.93652344 174.39111328 C43.45655175 172.17828396 41.15048803 169.86899418 38.93652344 167.39111328 C38.09992187 167.89900391 37.26332031 168.40689453 36.40136719 168.93017578 C14.14993618 182.19240388 -9.29905676 187.83188997 -35.12597656 187.76611328 C-35.89427795 187.76590179 -36.66257935 187.76569031 -37.4541626 187.76547241 C-61.3429198 187.69996167 -84.86969064 183.40179142 -103.02441406 166.59423828 C-111.08208638 157.8882475 -114.63456514 147.81527051 -114.50097656 136.14111328 C-114.49340332 135.21596924 -114.48583008 134.2908252 -114.47802734 133.33764648 C-114.21352265 122.32015718 -111.49879953 113.63913434 -104.06347656 105.39111328 C-103.48855469 104.72466797 -102.91363281 104.05822266 -102.32128906 103.37158203 C-72.97539838 71.52946413 -9.90032413 74.85424943 29.93652344 71.39111328 C29.68573852 68.18088629 29.40730144 64.97362326 29.12402344 61.76611328 C29.05376953 60.86248047 28.98351563 59.95884766 28.91113281 59.02783203 C28.30317187 52.36458005 27.1224228 47.68364188 22.37402344 42.70361328 C14.03020764 36.41022423 2.94186637 36.33031174 -7.06347656 37.39111328 C-14.80179575 38.84822232 -22.01407942 41.05404752 -27.06347656 47.39111328 C-29.51162139 51.2930795 -30.94506438 54.91746457 -32.06347656 59.39111328 C-56.15347656 59.39111328 -80.24347656 59.39111328 -105.06347656 59.39111328 C-103.70693017 44.46910297 -98.78320405 34.02596021 -87.55175781 24.19189453 C-76.58725168 15.38139779 -64.16803396 10.0395767 -50.75097656 6.07861328 C-49.98342041 5.84827393 -49.21586426 5.61793457 -48.42504883 5.38061523 C-32.5446423 1.00108808 -16.39840732 -0.10655413 0 0 Z M13.44970703 103.88037109 C11.71643534 104.05167724 9.98271192 104.21848376 8.24853516 104.38037109 C-16.04091612 106.52048537 -16.04091612 106.52048537 -36.50097656 118.76611328 C-39.98301721 124.61594157 -41.73538263 129.42804957 -40.63769531 136.28564453 C-39.16108155 141.69989501 -35.68102602 145.41535919 -31.06347656 148.39111328 C-24.7143185 151.14233298 -18.81004269 151.91027334 -11.93847656 151.82861328 C-10.56042847 151.81507813 -10.56042847 151.81507813 -9.15454102 151.80126953 C5.79213582 151.42567901 16.12922651 146.29476174 29.93652344 139.39111328 C29.93652344 127.18111328 29.93652344 114.97111328 29.93652344 102.39111328 C24.47986563 102.39111328 18.8789026 103.33674422 13.44970703 103.88037109 Z " fill="#E8E2D0" transform="translate(2154.0634765625,194.60888671875)"/>
<path d="M0 0 C2.93504265 0.01610516 5.86870903 0.00002819 8.80371094 -0.01904297 C24.87336588 -0.03785429 40.97483262 1.23584835 56.37402344 6.14111328 C57.60838135 6.52626099 57.60838135 6.52626099 58.86767578 6.91918945 C70.6892936 10.76601655 80.17088632 16.48203847 88.93652344 25.39111328 C89.52175781 25.97763672 90.10699219 26.56416016 90.70996094 27.16845703 C102.85298808 40.26690001 103.37694896 57.34636596 103.37792969 74.20361328 C103.38972803 75.98910591 103.40309817 77.77458878 103.41795349 79.56005859 C103.45384798 84.22030923 103.47426055 88.88047311 103.48950195 93.54083252 C103.51450672 101.02607352 103.5540533 108.5111233 103.61140251 115.9961853 C103.62767458 118.60028647 103.63150196 121.20420399 103.63441467 123.80834961 C103.64418973 125.40364907 103.6544528 126.99894564 103.6652832 128.59423828 C103.66273026 129.31324814 103.66017731 130.032258 103.657547 130.77305603 C103.69793217 134.73369217 104.01975545 137.89064364 105.93652344 141.39111328 C109.76148135 144.21607119 109.76148135 144.21607119 118.93652344 145.39111328 C118.93652344 157.93111328 118.93652344 170.47111328 118.93652344 183.39111328 C94.53476153 187.1452305 67.0915727 189.8659772 45.93652344 174.39111328 C43.45655175 172.17828396 41.15048803 169.86899418 38.93652344 167.39111328 C38.09992188 167.89900391 37.26332031 168.40689453 36.40136719 168.93017578 C14.14993618 182.19240388 -9.29905676 187.83188997 -35.12597656 187.76611328 C-35.89427795 187.76590179 -36.66257935 187.76569031 -37.4541626 187.76547241 C-61.3429198 187.69996167 -84.86969064 183.40179142 -103.02441406 166.59423828 C-111.08208638 157.8882475 -114.63456514 147.81527051 -114.50097656 136.14111328 C-114.49340332 135.21596924 -114.48583008 134.2908252 -114.47802734 133.33764648 C-114.21352265 122.32015718 -111.49879953 113.63913434 -104.06347656 105.39111328 C-103.48855469 104.72466797 -102.91363281 104.05822266 -102.32128906 103.37158203 C-72.97539838 71.52946413 -9.90032413 74.85424943 29.93652344 71.39111328 C29.68573852 68.18088629 29.40730144 64.97362326 29.12402344 61.76611328 C29.05376953 60.86248047 28.98351562 59.95884766 28.91113281 59.02783203 C28.30317187 52.36458005 27.1224228 47.68364188 22.37402344 42.70361328 C14.03020764 36.41022423 2.94186637 36.33031174 -7.06347656 37.39111328 C-14.80179575 38.84822232 -22.01407942 41.05404752 -27.06347656 47.39111328 C-29.51162139 51.2930795 -30.94506438 54.91746457 -32.06347656 59.39111328 C-56.15347656 59.39111328 -80.24347656 59.39111328 -105.06347656 59.39111328 C-103.70693017 44.46910297 -98.78320405 34.02596021 -87.55175781 24.19189453 C-76.58725168 15.38139779 -64.16803396 10.0395767 -50.75097656 6.07861328 C-49.98342041 5.84827393 -49.21586426 5.61793457 -48.42504883 5.38061523 C-32.5446423 1.00108808 -16.39840732 -0.10655413 0 0 Z M13.44970703 103.88037109 C11.71643534 104.05167724 9.98271192 104.21848376 8.24853516 104.38037109 C-16.04091612 106.52048537 -16.04091612 106.52048537 -36.50097656 118.76611328 C-39.98301721 124.61594157 -41.73538263 129.42804957 -40.63769531 136.28564453 C-39.16108155 141.69989501 -35.68102602 145.41535919 -31.06347656 148.39111328 C-24.7143185 151.14233298 -18.81004269 151.91027334 -11.93847656 151.82861328 C-10.56042847 151.81507813 -10.56042847 151.81507813 -9.15454102 151.80126953 C5.79213582 151.42567901 16.12922651 146.29476174 29.93652344 139.39111328 C29.93652344 127.18111328 29.93652344 114.97111328 29.93652344 102.39111328 C24.47986563 102.39111328 18.8789026 103.33674422 13.44970703 103.88037109 Z " fill="#E8E2D0" transform="translate(618.0634765625,194.60888671875)"/>
<path d="M0 0 C2.04701376 0.00315485 4.09256814 -0.02038471 6.1394043 -0.0456543 C26.81427289 -0.14514658 46.99227337 5.46376962 62.62963867 19.60473633 C75.39573819 33.11089958 79.75889794 50.31080481 79.58740234 68.44970703 C79.58784042 69.69030884 79.5882785 70.93091064 79.58872986 72.20910645 C79.58701497 75.56589275 79.57211498 78.92210486 79.55100799 82.27878976 C79.53207667 85.80345181 79.53047793 89.32812393 79.52693176 92.85282898 C79.51765908 99.50712833 79.49311109 106.16127736 79.46288329 112.81551093 C79.42287186 121.82165002 79.40684574 130.82783109 79.38937664 139.83403683 C79.36128565 153.99469478 79.30148482 168.15503574 79.24682617 182.31567383 C55.15682617 182.31567383 31.06682617 182.31567383 6.24682617 182.31567383 C6.20944336 174.15333008 6.17206055 165.99098633 6.13354492 157.58129883 C6.09939533 151.7349238 6.06339937 145.88858284 6.0247488 140.04223824 C5.97499627 132.47959307 5.92951963 124.9170038 5.90039062 117.35424805 C5.8748266 110.72109543 5.83383481 104.088151 5.78363991 97.45513153 C5.76701875 94.93077153 5.75547502 92.40637258 5.74921227 89.88196564 C5.73951962 86.33261251 5.71139781 82.78383004 5.67919922 79.23461914 C5.68063431 78.20242752 5.6820694 77.1702359 5.68354797 76.10676575 C5.56906021 67.1205799 4.69734821 56.09699187 -1.75317383 49.31567383 C-12.31100738 42.7662381 -23.50146953 41.91650844 -35.57739258 43.96411133 C-43.6285841 45.93274123 -50.65650007 48.95249273 -57.92504883 52.82739258 C-60.75317383 54.31567383 -60.75317383 54.31567383 -63.75317383 55.31567383 C-63.75317383 97.22567383 -63.75317383 139.13567383 -63.75317383 182.31567383 C-87.84317383 182.31567383 -111.93317383 182.31567383 -136.75317383 182.31567383 C-136.75317383 123.90567383 -136.75317383 65.49567383 -136.75317383 5.31567383 C-114.64317383 5.31567383 -92.53317383 5.31567383 -69.75317383 5.31567383 C-68.43317383 9.93567383 -67.11317383 14.55567383 -65.75317383 19.31567383 C-64.39192383 18.63504883 -63.03067383 17.95442383 -61.62817383 17.25317383 C-60.71036133 16.79813477 -59.79254883 16.3430957 -58.84692383 15.87426758 C-56.73011881 14.80784687 -54.62631848 13.7153225 -52.53442383 12.60083008 C-35.79724585 3.82916685 -18.93466599 -0.06070965 0 0 Z " fill="#E8E2D0" transform="translate(1931.753173828125,194.684326171875)"/>
<path d="M0 0 C24.09 0 48.18 0 73 0 C73.04898438 8.18554688 73.09796875 16.37109375 73.1484375 24.8046875 C73.18834036 30.66111959 73.22945981 36.51753326 73.27233124 42.37394333 C73.32765441 49.95337294 73.38014161 57.53278676 73.421875 65.11230469 C73.45847897 71.75837751 73.50522236 78.40432995 73.55806351 85.05029678 C73.57655129 87.58189811 73.59167981 90.11352634 73.60334396 92.6451683 C73.62030253 96.19961082 73.64936099 99.75376883 73.68115234 103.30810547 C73.68331253 104.34748764 73.68547272 105.38686981 73.68769836 106.45774841 C73.7982233 116.17392199 74.56101526 125.29462214 81 133 C89.04357518 139.79235238 98.95148759 139.79733873 109 139 C119.55234495 137.34431926 133.18486512 133.81513488 141 126 C141.10822389 124.36816693 141.14685031 122.73167657 141.15821838 121.09629822 C141.1680072 120.03474014 141.17779602 118.97318207 141.18788147 117.87945557 C141.19363693 116.70485779 141.1993924 115.53026001 141.20532227 114.32006836 C141.21522186 113.09097244 141.22512146 111.86187653 141.23532104 110.59553528 C141.26157201 107.2155421 141.28340783 103.83557335 141.30332303 100.45554042 C141.32514459 96.92676001 141.35255195 93.39802322 141.37937927 89.86927795 C141.42935811 83.18280046 141.47427761 76.49629882 141.51740164 69.80977398 C141.57594599 60.77730445 141.64226064 51.74489224 141.70815182 42.71247387 C141.81180768 28.47502116 141.9050428 14.23751954 142 0 C166.09 0 190.18 0 215 0 C215 58.41 215 116.82 215 177 C192.89 177 170.78 177 148 177 C144.625 166.875 144.625 166.875 144 162 C142.63681641 162.87011719 142.63681641 162.87011719 141.24609375 163.7578125 C114.64451426 180.42312997 81.05870322 187.39129386 50 180.5 C32.58773125 176.1229335 17.45903248 166.39204169 8 151 C1.48422217 139.30892988 -0.46576787 127.10735647 -0.34057617 113.8659668 C-0.34101425 112.62536499 -0.34145233 111.38476318 -0.34190369 110.10656738 C-0.34018879 106.74978108 -0.32528881 103.39356897 -0.30418181 100.03688407 C-0.28525049 96.51222202 -0.28365176 92.9875499 -0.28010559 89.46284485 C-0.27083291 82.8085455 -0.24628492 76.15439647 -0.21605712 69.5001629 C-0.17604569 60.49402381 -0.16001956 51.48784274 -0.14255047 42.481637 C-0.11445948 28.32097905 -0.05465865 14.16063809 0 0 Z " fill="#E8E2D0" transform="translate(762,200)"/>
<path d="M0 0 C24.42 0 48.84 0 74 0 C79.62431574 12.37349462 79.62431574 12.37349462 81.46923828 17.01074219 C82.09839645 18.58622078 82.09839645 18.58622078 82.74026489 20.19352722 C83.1791806 21.30013199 83.61809631 22.40673676 84.0703125 23.546875 C84.79818356 25.37169405 85.52605622 27.19651245 86.2539959 29.02130413 C87.28270353 31.6019085 88.30901479 34.1834635 89.33544922 36.76497269 C91.74291149 42.81762754 94.15684246 48.86770764 96.5703125 54.91796875 C96.83964851 55.59344191 97.10898453 56.26891506 97.38648224 56.9648571 C101.15893019 66.42401832 104.96433063 75.86894418 108.8046875 85.30078125 C109.2509549 86.39802521 109.69722229 87.49526917 110.15701294 88.62576294 C112.25215172 93.77558928 114.35275011 98.92308505 116.46142578 104.06738281 C117.20366535 105.88988648 117.94570269 107.71247253 118.6875 109.53515625 C119.0269162 110.35728104 119.3663324 111.17940582 119.71603394 112.02644348 C122 117.65936592 122 117.65936592 122 121 C122.66 121 123.32 121 124 121 C124.11899658 120.3045105 124.23799316 119.609021 124.3605957 118.89245605 C125.06605985 115.70116681 126.08976143 112.78400523 127.23046875 109.72070312 C127.45721503 109.10868199 127.68396132 108.49666086 127.9175787 107.86609364 C128.67060696 105.83644937 129.4290126 103.80885983 130.1875 101.78125 C130.72349464 100.34021631 131.25917836 98.89906694 131.79457092 97.45780945 C133.22874606 93.60023947 134.6677479 89.74448738 136.10792923 85.88915634 C137.29551437 82.70854931 138.48056792 79.52700159 139.66566181 76.34546566 C143.43496528 66.22701286 147.21523605 56.11267863 151 46 C151.25003029 45.33177971 151.50006058 44.66355942 151.75766754 43.97509003 C154.85061745 35.70928887 157.95216419 27.44677338 161.0625 19.1875 C161.41884521 18.23907227 161.77519043 17.29064453 162.14233398 16.31347656 C163.12452104 13.70136009 164.11037133 11.09066192 165.09765625 8.48046875 C165.381819 7.72352219 165.66598175 6.96657562 165.95875549 6.18669128 C167.88491384 1.11508616 167.88491384 1.11508616 169 0 C171.26991887 -0.09439978 173.54281967 -0.11742226 175.81469727 -0.11352539 C176.88293228 -0.11374443 176.88293228 -0.11374443 177.9727478 -0.1139679 C180.33733112 -0.1132687 182.70183661 -0.10547606 185.06640625 -0.09765625 C186.70165463 -0.09579209 188.33690357 -0.09436818 189.97215271 -0.09336853 C194.28434785 -0.08954318 198.59650952 -0.07971275 202.90869141 -0.06866455 C207.30565946 -0.0584508 211.70263289 -0.05387099 216.09960938 -0.04882812 C224.73308831 -0.03809049 233.36654 -0.02101387 242 0 C241.4495812 3.14687409 240.76732184 5.84169649 239.34863281 8.70336914 C239.0097554 9.3945433 238.67087799 10.08571747 238.32173157 10.7978363 C237.9525914 11.53615189 237.58345123 12.27446747 237.203125 13.03515625 C236.81831467 13.81725967 236.43350433 14.5993631 236.03703308 15.40516663 C235.21018531 17.08487356 234.38085335 18.76335948 233.54928589 20.44073486 C231.34933321 24.87991124 229.16880306 29.3285985 226.98828125 33.77734375 C226.55367081 34.66329224 226.11906036 35.54924072 225.67127991 36.46203613 C222.15874468 43.63805878 218.7662681 50.86168897 215.4375 58.125 C210.44728985 68.99537871 205.25539777 79.75597634 200 90.5 C194.72422902 101.28581996 189.51335575 112.08909735 184.5 123 C178.69667037 135.62535851 172.64248925 148.12086942 166.53149414 160.59960938 C163.21184166 167.38130144 159.90106305 174.16244768 156.72265625 181.01171875 C151.91210083 191.37699941 147.12005688 201.01043098 140 210 C139.37996094 210.81210937 138.75992188 211.62421875 138.12109375 212.4609375 C123.99104287 229.74738805 101.94703473 236.49439284 80.51133728 238.79527283 C76.12239748 239.15306437 71.74099318 239.14234439 67.33984375 239.1328125 C66.3505336 239.13376923 65.36122345 239.13472595 64.3419342 239.13571167 C62.2636814 239.13638815 60.18542641 239.13457121 58.10717773 239.13037109 C54.94314799 239.12500957 51.7792598 239.13033719 48.61523438 239.13671875 C46.58593719 239.13605799 44.55664009 239.13477686 42.52734375 239.1328125 C41.59067368 239.13483673 40.6540036 239.13686096 39.68894958 239.13894653 C38.35199791 239.13421829 38.35199791 239.13421829 36.98803711 239.12939453 C36.21576279 239.12859894 35.44348846 239.12780334 34.64781189 239.12698364 C31.08281363 238.95601362 27.5415346 238.44269182 24 238 C24 224.47 24 210.94 24 197 C43.375 196.6875 43.375 196.6875 49.42724609 196.61206055 C65.80685083 196.45475694 65.80685083 196.45475694 80 189 C83.37310086 184.52758772 87.22350606 179.19671293 86.82006836 173.42651367 C85.71814167 168.82230377 83.69101856 164.97978688 81.50390625 160.80078125 C81.04389221 159.90587479 80.58387817 159.01096832 80.10992432 158.08894348 C78.60177868 155.15943756 77.08218932 152.23603175 75.5625 149.3125 C74.50727803 147.267817 73.45284232 145.22272805 72.39916992 143.17724609 C70.2723366 139.05132489 68.14115151 134.9277021 66.00585938 130.80615234 C63.38505745 125.74670397 60.77465865 120.6820191 58.171875 115.61328125 C57.80437637 114.89767532 57.43687775 114.1820694 57.0582428 113.44477844 C56.33405772 112.03456047 55.60990056 110.62432817 54.88577271 109.21408081 C53.07580698 105.69105759 51.26226175 102.16987773 49.44921875 98.6484375 C42.57289359 85.28958977 35.72295127 71.91719372 28.86935425 58.54667664 C25.73638302 52.43510756 22.60093887 46.32481031 19.46484375 40.21484375 C18.1032102 37.56150375 16.74162675 34.90813805 15.38006592 32.25476074 C14.51358649 30.56643639 13.64693294 28.87820139 12.78009033 27.19006348 C10.49917878 22.74797678 8.22136177 18.30434515 5.95001221 13.85736084 C5.07886754 12.15419326 4.20346289 10.45320634 3.32763672 8.75244141 C2.86760254 7.85058105 2.40756836 6.9487207 1.93359375 6.01953125 C1.36016235 4.90155151 1.36016235 4.90155151 0.77514648 3.76098633 C0 2 0 2 0 0 Z " fill="#E8E2D0" transform="translate(3283,200)"/>
<path d="M0 0 C0.96085007 -0.00570007 1.92170013 -0.01140015 2.91166687 -0.01727295 C4.93955403 -0.02667058 6.9674561 -0.03323594 8.99536133 -0.03710938 C12.02779505 -0.04672775 15.05952415 -0.07776567 18.09179688 -0.109375 C47.44799663 -0.26822306 77.86811055 4.25727497 100.07421875 25.078125 C109.26902138 34.74300956 113.13136906 46.16032746 114.76171875 59.203125 C91.00171875 59.203125 67.24171875 59.203125 42.76171875 59.203125 C41.44171875 55.573125 40.12171875 51.943125 38.76171875 48.203125 C36.66693199 43.92625703 36.66693199 43.92625703 32.76171875 42.203125 C31.99214844 41.86152344 31.22257812 41.51992187 30.4296875 41.16796875 C18.9483059 36.41268787 6.77523745 35.70665314 -5.23828125 39.203125 C-9.86534967 41.36395068 -13.53674834 43.78901319 -16.23828125 48.203125 C-16.90285811 51.60908139 -16.81081399 54.78460424 -16.23828125 58.203125 C-11.71855193 64.90982013 -3.34337886 67.12349313 4.23339844 68.66357422 C6.71482664 69.1224392 9.19837868 69.56992093 11.68359375 70.0078125 C13.03313334 70.25548552 14.38243353 70.50446613 15.73150635 70.75466919 C19.989334 71.54171026 24.25026329 72.31100741 28.51171875 73.078125 C97.21033462 85.45486953 97.21033462 85.45486953 112.76171875 107.203125 C118.67925643 118.08780794 119.39163446 130.40988545 117.1484375 142.51171875 C112.36243206 157.03840486 101.30004949 166.65043176 88.07421875 173.390625 C67.88761746 183.21119755 45.63421459 187.30154444 23.27734375 187.40625 C22.30045593 187.41195007 21.32356812 187.41765015 20.31707764 187.42352295 C18.25648051 187.43291334 16.19586878 187.439483 14.13525391 187.44335938 C11.06123795 187.45297018 7.9879195 187.48401214 4.9140625 187.515625 C-12.21946344 187.60809034 -29.62322497 186.54750423 -46.11328125 181.515625 C-46.96712402 181.26216309 -47.8209668 181.00870117 -48.70068359 180.74755859 C-66.79991477 175.11541031 -84.34942452 165.36063317 -93.8359375 148.3359375 C-97.56486697 140.48670404 -99.23828125 133.98773735 -99.23828125 125.203125 C-76.13828125 125.203125 -53.03828125 125.203125 -29.23828125 125.203125 C-27.58828125 129.163125 -25.93828125 133.123125 -24.23828125 137.203125 C-20.3910487 142.09340059 -20.3910487 142.09340059 -15.48828125 144.890625 C-14.6890625 145.28636719 -13.88984375 145.68210937 -13.06640625 146.08984375 C-5.2807318 149.15464654 1.77843888 149.54047755 10.07421875 149.515625 C11.67040039 149.53979492 11.67040039 149.53979492 13.29882812 149.56445312 C23.0926302 149.5704286 32.09109466 148.52733469 39.51953125 141.703125 C42.04324978 138.65561583 42.1775531 135.10252656 42.0859375 131.26171875 C41.50190386 127.55345699 39.68676413 125.34076671 36.76171875 123.203125 C28.75698373 119.34902732 19.98369746 117.84934928 11.31680298 116.25286865 C8.95712238 115.81806486 6.59989619 115.37158192 4.24291992 114.92236328 C-2.05606779 113.72478825 -8.35964455 112.55209093 -14.66357422 111.38085938 C-71.99832205 100.71634058 -71.99832205 100.71634058 -84.93359375 82.86328125 C-86.52671778 80.36584768 -87.91555195 77.85270425 -89.23828125 75.203125 C-89.57988281 74.52894531 -89.92148438 73.85476563 -90.2734375 73.16015625 C-93.92831049 64.37146165 -93.6497162 52.33416377 -90.73828125 43.328125 C-83.26603636 26.01567029 -68.42125854 16.11124526 -51.48901367 9.35400391 C-34.96975199 3.08989173 -17.63937046 0.0835731 0 0 Z " fill="#E8E2D0" transform="translate(1647.23828125,194.796875)"/>
<path d="M0 0 C3.13683884 0.03156567 6.27317307 0.0410315 9.41015625 0.046875 C11.43620399 0.0560335 13.4622467 0.06640556 15.48828125 0.078125 C16.41029327 0.08237488 17.3323053 0.08662476 18.28225708 0.09100342 C19.1612265 0.10061096 20.04019592 0.11021851 20.94580078 0.12011719 C22.08228561 0.13035919 22.08228561 0.13035919 23.24172974 0.14080811 C27.16790663 0.34214154 31.07317817 0.8471066 34.98046875 1.28125 C34.98046875 14.15125 34.98046875 27.02125 34.98046875 40.28125 C19.10546875 40.59375 19.10546875 40.59375 14.16064453 40.66918945 C6.41600307 40.86420524 -0.77877841 41.24950904 -8.01953125 44.28125 C-8.73093262 44.56911377 -9.44233398 44.85697754 -10.17529297 45.15356445 C-13.83994233 47.39436607 -14.0509309 51.31460097 -15.01953125 55.28125 C-15.34953125 60.56125 -15.67953125 65.84125 -16.01953125 71.28125 C-2.48953125 71.28125 11.04046875 71.28125 24.98046875 71.28125 C24.98046875 84.48125 24.98046875 97.68125 24.98046875 111.28125 C11.45046875 111.28125 -2.07953125 111.28125 -16.01953125 111.28125 C-16.01953125 156.49125 -16.01953125 201.70125 -16.01953125 248.28125 C-40.10953125 248.28125 -64.19953125 248.28125 -89.01953125 248.28125 C-89.01953125 203.07125 -89.01953125 157.86125 -89.01953125 111.28125 C-99.24953125 111.28125 -109.47953125 111.28125 -120.01953125 111.28125 C-120.01953125 98.08125 -120.01953125 84.88125 -120.01953125 71.28125 C-109.78953125 71.28125 -99.55953125 71.28125 -89.01953125 71.28125 C-89.10203125 67.259375 -89.18453125 63.2375 -89.26953125 59.09375 C-89.36765626 43.3830613 -87.08265713 32.32197148 -76.28125 20.35546875 C-56.9752803 1.71094555 -25.12824958 -0.2547858 0 0 Z " fill="#E8E2D0" transform="translate(2761.01953125,128.71875)"/>
<path d="M0 0 C23.76 0 47.52 0 72 0 C72 15.84 72 31.68 72 48 C86.52 48 101.04 48 116 48 C116 61.2 116 74.4 116 88 C101.48 88 86.96 88 72 88 C72.12012188 100.90831431 72.12012188 100.90831431 72.2578125 113.81640625 C72.31792934 119.08736495 72.376066 124.35828953 72.421875 129.62939453 C72.45897134 133.88296829 72.5053945 138.13635064 72.55806351 142.38975906 C72.57647897 144.00587198 72.59163338 145.62202573 72.60334396 147.23820114 C72.35756826 162.12682126 72.35756826 162.12682126 77 176 C78.78832186 177.29186063 78.78832186 177.29186063 80.875 178.1875 C81.89207031 178.67283203 81.89207031 178.67283203 82.9296875 179.16796875 C87.28674718 180.91901349 91.25930865 181.17718288 95.953125 181.31640625 C97.16129883 181.35451416 98.36947266 181.39262207 99.61425781 181.43188477 C101.14405273 181.47498779 102.67384766 181.51809082 104.25 181.5625 C109.1175 181.706875 113.985 181.85125 119 182 C119 196.52 119 211.04 119 226 C87.53989481 229.93251315 45.30882593 231.83111587 18.2734375 212 C7.12947399 202.57308223 0.97260782 190.40276876 -1 176 C-1.13401795 173.07944203 -1.12664127 170.16391084 -1.11352539 167.24072266 C-1.11367142 166.38153229 -1.11381744 165.52234192 -1.1139679 164.63711548 C-1.11327429 161.81273831 -1.1055078 158.98842807 -1.09765625 156.1640625 C-1.09579011 154.19965654 -1.09436713 152.2352501 -1.09336853 150.27084351 C-1.08955879 145.11206772 -1.07974171 139.95332029 -1.06866455 134.79455566 C-1.05841721 129.52580143 -1.0538638 124.25704259 -1.04882812 118.98828125 C-1.03811803 108.65883973 -1.02053376 98.32942667 -1 88 C-11.23 88 -21.46 88 -32 88 C-32 74.8 -32 61.6 -32 48 C-21.44 48 -10.88 48 0 48 C0 32.16 0 16.32 0 0 Z " fill="#E8E2D0" transform="translate(1032,152)"/>
<path d="M0 0 C24.09 0 48.18 0 73 0 C73 58.41 73 116.82 73 177 C48.91 177 24.82 177 0 177 C0 118.59 0 60.18 0 0 Z " fill="#E8E2D0" transform="translate(3646,200)"/>
<path d="M0 0 C25.74 0 51.48 0 78 0 C78 18.81 78 37.62 78 57 C52.26 57 26.52 57 0 57 C0 38.19 0 19.38 0 0 Z " fill="#E8E2D0" transform="translate(3521,321)"/>
<path d="M0 0 C25.74 0 51.48 0 78 0 C78 18.81 78 37.62 78 57 C52.26 57 26.52 57 0 57 C0 38.19 0 19.38 0 0 Z " fill="#E8E2D0" transform="translate(2796,321)"/>
<path d="M0 0 C25.74 0 51.48 0 78 0 C78 18.81 78 37.62 78 57 C52.26 57 26.52 57 0 57 C0 38.19 0 19.38 0 0 Z " fill="#E8E2D0" transform="translate(1439,321)"/>
<path d="M0 0 C24.75 0 49.5 0 75 0 C75 14.52 75 29.04 75 44 C50.25 44 25.5 44 0 44 C0 29.48 0 14.96 0 0 Z " fill="#E8E2D0" transform="translate(3645,131)"/>
</svg>
