<?xml version="1.0" encoding="UTF-8"?>
<svg version="1.1" xmlns="http://www.w3.org/2000/svg" width="1200" height="300">
<path d="M0 0 C0.33 25.74 0.66 51.48 1 78 C1.66 76.68 2.32 75.36 3 74 C3.66 74 4.32 74 5 74 C5.0825 73.47792969 5.165 72.95585938 5.25 72.41796875 C6.29254558 69.05684523 8.13103373 66.26298346 10 63.3125 C10.36867187 62.71888672 10.73734375 62.12527344 11.1171875 61.51367188 C13.83363412 57.16636588 13.83363412 57.16636588 15 56 C20.02618452 55.74869077 23.37856728 55.88734504 28 58 C28.99 58 29.98 58 31 58 C28.44052949 56.05847229 25.87689687 54.12251487 23.3125 52.1875 C22.59126953 51.64029297 21.87003906 51.09308594 21.12695312 50.52929688 C18.13243691 48.27315452 15.22302228 46.13012038 11.98046875 44.23828125 C11.32691406 43.82964844 10.67335937 43.42101563 10 43 C10 42.34 10 41.68 10 41 C9.34 41 8.68 41 8 41 C10.42243047 32.05170092 13.80652571 23.49119085 17.1875 14.875 C17.75230857 13.42722195 18.31676437 11.97930622 18.88085938 10.53125 C20.24984804 7.01923429 21.62358415 3.50911116 23 0 C28.26650997 -0.34508057 30.8625059 0.01838713 34.96875 3.34375 C35.91234375 4.0759375 36.8559375 4.808125 37.828125 5.5625 C38.33601563 5.95888672 38.84390625 6.35527344 39.3671875 6.76367188 C42.31628852 8.99666344 45.39644584 11.03543296 48.46875 13.09375 C49.44799438 13.75395142 49.44799438 13.75395142 50.44702148 14.42749023 C52.46340151 15.78690557 54.48146395 17.1437885 56.5 18.5 C64.65121087 23.97662544 72.76901499 29.45910257 80.65649414 35.31396484 C83.02863955 37.02060472 85.45388775 38.58610486 87.9375 40.125 C93.34175234 43.50362414 98.54155961 47.14292809 103.75 50.8125 C109.87555588 55.1258289 116.01412327 59.40980489 122.25 63.5625 C123.10609863 64.1335144 123.10609863 64.1335144 123.97949219 64.71606445 C124.52766602 65.07917725 125.07583984 65.44229004 125.640625 65.81640625 C126.14352303 66.16586461 126.64642105 66.51532297 127.16455841 66.87537098 C128.97167132 68.06763243 128.97167132 68.06763243 131.04613495 68.73840618 C133.6768836 69.84617148 135.13889043 70.81225813 137 73 C138.22591091 78.35922447 138.01062028 83.71142041 137.90820312 89.1730957 C137.90594598 90.84868766 137.9072143 92.52428752 137.91174316 94.19987488 C137.9140388 98.74558203 137.86700504 103.28960075 137.8111515 107.8349154 C137.76114318 112.58607946 137.7564419 117.33728219 137.74694824 122.08866882 C137.72208234 131.0845314 137.65643244 140.07961627 137.57615232 149.07513636 C137.48673517 159.31678539 137.44274777 169.55847154 137.40258884 179.80041373 C137.31896623 200.86737657 137.17825133 221.9336393 137 243 C130.07062977 245.58625649 123.13218213 248.14691122 116.18701172 250.69042969 C113.82810195 251.55768068 111.47128781 252.43065499 109.11669922 253.30957031 C105.72124641 254.57586603 102.31865436 255.82101861 98.9140625 257.0625 C97.35094833 257.65309204 97.35094833 257.65309204 95.7562561 258.25561523 C84.96982214 262.14166359 79.03349542 261.67783181 68 258 C68 264.27 68 270.54 68 277 C61.89449323 279.93769372 55.78730385 282.87171657 49.67578125 285.796875 C45.68559261 287.70727058 41.7026046 289.6304971 37.73046875 291.578125 C36.23702619 292.30218034 34.74354028 293.02614626 33.25 293.75 C32.57912354 294.08451172 31.90824707 294.41902344 31.21704102 294.76367188 C27.35781069 296.61921496 25.46199007 297 21 297 C21 233.97 21 170.94 21 106 C20.34 106 19.68 106 19 106 C19 170.02 19 234.04 19 300 C17.68 300 16.36 300 15 300 C15 235.32 15 170.64 15 104 C11.37 103.34 7.74 102.68 4 102 C3.01 101.67 2.02 101.34 1 101 C0.96702531 114.81309577 0.97460603 128.62566423 1.02846622 142.43870544 C1.05230089 148.85301805 1.06327388 155.26681127 1.04467773 161.68115234 C1.02720095 167.87361927 1.04373885 174.06515386 1.08367729 180.25750732 C1.09295813 182.61772047 1.09006535 184.97801447 1.07469368 187.3381958 C1.05522359 190.64967787 1.07937359 193.95822707 1.11352539 197.26953125 C1.0977092 198.24129807 1.08189301 199.21306488 1.06559753 200.21427917 C1.19461299 206.73280132 2.81261598 209.88500668 7.49991512 214.43193054 C9 216 9 216 9 218 C9.99 218 10.98 218 12 218 C11.5188509 223.77378925 9.81532819 227.95859836 7 233 C6.34 233 5.68 233 5 233 C4.88825439 233.71188477 4.77650879 234.42376953 4.66137695 235.15722656 C3.44169535 240.39974136 0.65625011 244.99904052 -1.8125 249.75 C-2.34681641 250.81605469 -2.88113281 251.88210937 -3.43164062 252.98046875 C-3.95564453 253.99238281 -4.47964844 255.00429687 -5.01953125 256.046875 C-5.49495361 256.97338867 -5.97037598 257.89990234 -6.46020508 258.85449219 C-8 261 -8 261 -9.91967773 261.93139648 C-12.58242062 262.01920669 -13.93665064 261.33316822 -16.265625 260.05078125 C-17.47798828 259.39625977 -17.47798828 259.39625977 -18.71484375 258.72851562 C-19.55144531 258.26123047 -20.38804688 257.79394531 -21.25 257.3125 C-22.90064394 256.41203097 -24.55168196 255.51228392 -26.203125 254.61328125 C-27.00169922 254.1745166 -27.80027344 253.73575195 -28.62304688 253.28369141 C-32.04175181 251.4373941 -35.51379842 249.71498626 -39 248 C-39 247.34 -39 246.68 -39 246 C-40.1446875 245.814375 -40.1446875 245.814375 -41.3125 245.625 C-44 245 -44 245 -47 243 C-47.29408502 239.97963911 -47.39086769 237.16439623 -47.36076355 234.14169312 C-47.36332682 233.21301788 -47.3658901 232.28434264 -47.36853105 231.32752573 C-47.37349667 228.19653013 -47.35693028 225.06601022 -47.34057617 221.93505859 C-47.3397305 219.69833894 -47.34020387 217.46161846 -47.34190369 215.22489929 C-47.3427674 209.1362966 -47.32508083 203.04786981 -47.30418181 196.95930815 C-47.28547758 190.60248923 -47.28366952 184.24566665 -47.28010559 177.88882446 C-47.27182895 167.21393415 -47.25306726 156.53911362 -47.22631836 145.86425781 C-47.1987923 134.86784184 -47.17755163 123.87144345 -47.16479492 112.875 C-47.16400675 112.19747745 -47.16321858 111.5199549 -47.16240653 110.82190137 C-47.15849149 107.42305857 -47.15470035 104.02421565 -47.15097082 100.62537265 C-47.11985741 72.41687 -47.06678377 44.20843902 -47 16 C-46.1121582 15.58637207 -45.22431641 15.17274414 -44.30957031 14.74658203 C-41.00690011 13.20775436 -37.70457134 11.66819519 -34.40234375 10.12841797 C-32.97470207 9.46285453 -31.54696861 8.7974879 -30.11914062 8.13232422 C-28.06355862 7.17467494 -26.00831071 6.21631189 -23.953125 5.2578125 C-23.31755676 4.96190216 -22.68198853 4.66599182 -22.02716064 4.3611145 C-13.14777987 0.21755243 -11.6232089 0 0 0 Z M71 88 C70.92995886 103.85498772 70.87703591 119.70993376 70.84456348 135.56503773 C70.82908608 142.92663045 70.80798 150.28812712 70.77368164 157.6496582 C70.74380587 164.06501077 70.72443135 170.48029379 70.71773452 176.89571398 C70.71381912 180.29353264 70.7045996 183.69115229 70.68280983 187.08890724 C70.66113853 190.87946157 70.65802881 194.66959911 70.65942383 198.46020508 C70.648638 199.59020935 70.63785217 200.72021362 70.6267395 201.88446045 C70.63086349 202.91511124 70.63498749 203.94576202 70.63923645 205.00764465 C70.63647107 205.90454923 70.63370569 206.8014538 70.63085651 207.7255373 C71.08236695 210.50750064 71.7827372 211.30921646 74 213 C78.79560674 215.34841361 78.79560674 215.34841361 84 216 C84.11683393 200.83155732 84.20498839 185.6631354 84.25906086 170.49434376 C84.28483581 163.45107285 84.31997213 156.40808162 84.37719727 149.36499023 C84.43238137 142.56986016 84.4614101 135.77502104 84.47438622 128.97968102 C84.48363525 126.38526519 84.50169617 123.79086554 84.52865028 121.19657326 C84.56486944 117.56665098 84.56994803 113.9379348 84.56762695 110.30786133 C84.58560333 109.2318013 84.60357971 108.15574127 84.62210083 107.04707336 C84.58457456 100.99552892 84.58457456 100.99552892 81.65202332 95.79325867 C79.11937119 93.71992644 79.11937119 93.71992644 76 94 C75.731875 93.38125 75.46375 92.7625 75.1875 92.125 C74.04443152 89.7004767 74.04443152 89.7004767 71 88 Z M89 103 C89 140.62 89 178.24 89 217 C89.33 217 89.66 217 90 217 C90.72827501 190.10031014 91.12684277 163.20454064 91.18167114 136.29553223 C91.18751252 134.12033882 91.19722299 131.94519364 91.20800781 129.77001953 C91.22765524 125.68257531 91.23016545 121.59530442 91.23046875 117.5078125 C91.23761398 116.27040314 91.24475922 115.03299377 91.25212097 113.75808716 C91.24908463 112.63022797 91.24604828 111.50236877 91.24291992 110.34033203 C91.24434494 109.35259796 91.24576996 108.36486389 91.24723816 107.34719849 C91.22876892 104.80933938 91.22876892 104.80933938 89 103 Z " fill="#E8E2D0" transform="translate(47,0)"/>
<path d="M0 0 C0 4.62 0 9.24 0 14 C-3.05989583 14.42317708 -6.11979167 14.84635417 -9.1796875 15.26953125 C-12.31238846 15.74665741 -12.31238846 15.74665741 -14 19 C-14.39387788 21.32387947 -14.73486085 23.65793749 -15 26 C-11.04 26 -7.08 26 -3 26 C-3 30.95 -3 35.9 -3 41 C-6.96 41 -10.92 41 -15 41 C-15 57.5 -15 74 -15 91 C-21.93 91 -28.86 91 -36 91 C-36 74.5 -36 58 -36 41 C-38.97 41 -41.94 41 -45 41 C-45.495 36.545 -45.495 36.545 -46 32 C-46.19822861 32.70965912 -46.39645721 33.41931824 -46.60069275 34.15048218 C-48.46730208 40.83155923 -50.33585713 47.51208933 -52.20661068 54.19200706 C-53.16836053 57.62640205 -54.12935129 61.0610057 -55.08862305 64.49609375 C-56.19095358 68.44333839 -57.29655672 72.38965976 -58.40234375 76.3359375 C-58.74716293 77.57242035 -59.09198212 78.8089032 -59.44725037 80.08285522 C-59.92763512 81.79440292 -59.92763512 81.79440292 -60.41772461 83.54052734 C-60.69974228 84.548685 -60.98175995 85.55684265 -61.27232361 86.59555054 C-62 89 -62 89 -63 91 C-70.92 91 -78.84 91 -87 91 C-90.3 77.8 -93.6 64.6 -97 51 C-99.76097336 61.35365011 -102.44452847 71.70416426 -104.97460938 82.11328125 C-105.22404297 83.12519531 -105.47347656 84.13710937 -105.73046875 85.1796875 C-105.95114014 86.08444824 -106.17181152 86.98920898 -106.39916992 87.92138672 C-107 90 -107 90 -108 91 C-109.78071246 91.08726223 -111.5648314 91.10699041 -113.34765625 91.09765625 C-114.42724609 91.09443359 -115.50683594 91.09121094 -116.61914062 91.08789062 C-117.75544922 91.07951172 -118.89175781 91.07113281 -120.0625 91.0625 C-121.20267578 91.05798828 -122.34285156 91.05347656 -123.51757812 91.04882812 C-126.34510351 91.03699747 -129.1725264 91.0205141 -132 91 C-134.22263036 83.11737646 -136.43966285 75.23320928 -138.64957428 67.34701157 C-139.67590909 63.68515153 -140.7041607 60.02385255 -141.73681641 56.36376953 C-142.73338717 52.83131297 -143.72489181 49.29747038 -144.71290588 45.76261139 C-145.09066333 44.4145172 -145.47024078 43.06693162 -145.85166931 41.71987152 C-146.38575183 39.83250899 -146.91275828 37.94314842 -147.43945312 36.05371094 C-147.7414563 34.97893494 -148.04345947 33.90415894 -148.35461426 32.79681396 C-149 30 -149 30 -149 26 C-142.07 26 -135.14 26 -128 26 C-126.33597509 30.16006229 -125.26647606 33.82050875 -124.30859375 38.1640625 C-124.158423 38.83795013 -124.00825226 39.51183777 -123.85353088 40.20614624 C-123.37755343 42.34490734 -122.90722275 44.48485734 -122.4375 46.625 C-121.96328806 48.77206613 -121.48787013 50.91885369 -121.01075745 53.0652771 C-120.57951775 55.00733283 -120.15185013 56.95018072 -119.72436523 58.89306641 C-119.0484726 62.00885683 -119.0484726 62.00885683 -118 65 C-115.03 52.13 -112.06 39.26 -109 26 C-101.41 26 -93.82 26 -86 26 C-83.272925 35.89827223 -80.85365427 45.81664094 -78.66333008 55.84814453 C-78.46118896 56.76192871 -78.25904785 57.67571289 -78.05078125 58.6171875 C-77.87200439 59.43815918 -77.69322754 60.25913086 -77.5090332 61.10498047 C-77.17010112 62.99638585 -77.17010112 62.99638585 -76 64 C-75.76289307 62.95545654 -75.52578613 61.91091309 -75.28149414 60.8347168 C-74.4015005 56.9598592 -73.51953078 53.08545364 -72.63696289 49.21118164 C-72.2552382 47.53422109 -71.87404971 45.85713839 -71.4934082 44.17993164 C-70.9462344 41.76937065 -70.3971346 39.35925533 -69.84765625 36.94921875 C-69.59291283 35.82407112 -69.59291283 35.82407112 -69.33302307 34.67619324 C-68.66025014 31.73237523 -67.95563244 28.86689733 -67 26 C-56.77 26 -46.54 26 -36 26 C-36 21.71 -36 17.42 -36 13 C-34.14280652 7.22206473 -30.41365433 3.8235333 -25.171875 1.0234375 C-18.66470572 -1.63407057 -6.47099837 -3.23549918 0 0 Z " fill="#E8E2D0" transform="translate(859,91)"/>
<path d="M0 0 C2.8341882 1.64126718 5.27639897 3.47839912 7.765625 5.6015625 C8.45269531 5.18003906 9.13976562 4.75851563 9.84765625 4.32421875 C10.74871094 3.77636719 11.64976562 3.22851562 12.578125 2.6640625 C13.47144531 2.11878906 14.36476563 1.57351562 15.28515625 1.01171875 C19.6330861 -1.46009649 23.13465463 -1.58976129 28.078125 -1.6484375 C30.02138672 -1.68710938 30.02138672 -1.68710938 32.00390625 -1.7265625 C36.79138669 -1.30896296 39.99111394 0.0355944 43.59375 3.21484375 C44.06296875 3.77558594 44.5321875 4.33632812 45.015625 4.9140625 C45.49515625 5.46707031 45.9746875 6.02007812 46.46875 6.58984375 C50.45602491 12.77492381 50.02837095 19.25850086 49.9609375 26.34375 C49.9581076 27.46725861 49.95527771 28.59076721 49.95236206 29.74832153 C49.94119803 33.32451177 49.91610001 36.9004484 49.890625 40.4765625 C49.88059033 42.90624637 49.87146533 45.33593419 49.86328125 47.765625 C49.841271 53.7110347 49.8067668 59.65625565 49.765625 65.6015625 C42.835625 65.6015625 35.905625 65.6015625 28.765625 65.6015625 C28.71664062 62.48332031 28.66765625 59.36507812 28.6171875 56.15234375 C28.56315452 53.12731184 28.50585608 50.10235816 28.44824219 47.07739258 C28.40999486 44.97751713 28.3751346 42.87757712 28.34375 40.77758789 C28.2980075 37.75643869 28.24002777 34.73573234 28.1796875 31.71484375 C28.16813629 30.77820389 28.15658508 29.84156403 28.14468384 28.87654114 C28.03375324 22.49958445 28.03375324 22.49958445 25.765625 16.6015625 C22.94561173 15.19155586 20.89555245 15.35607799 17.765625 15.6015625 C15.05436116 17.02777934 15.05436116 17.02777934 12.765625 18.6015625 C12.105625 18.6015625 11.445625 18.6015625 10.765625 18.6015625 C10.765625 34.1115625 10.765625 49.6215625 10.765625 65.6015625 C3.835625 65.6015625 -3.094375 65.6015625 -10.234375 65.6015625 C-10.28335938 62.48332031 -10.33234375 59.36507812 -10.3828125 56.15234375 C-10.43684548 53.12731184 -10.49414392 50.10235816 -10.55175781 47.07739258 C-10.59000514 44.97751713 -10.6248654 42.87757712 -10.65625 40.77758789 C-10.7019925 37.75643869 -10.75997223 34.73573234 -10.8203125 31.71484375 C-10.83186371 30.77820389 -10.84341492 29.84156403 -10.85531616 28.87654114 C-10.96624676 22.49958445 -10.96624676 22.49958445 -13.234375 16.6015625 C-16.05438827 15.19155586 -18.10444755 15.35607799 -21.234375 15.6015625 C-23.94563884 17.02777934 -23.94563884 17.02777934 -26.234375 18.6015625 C-26.894375 18.6015625 -27.554375 18.6015625 -28.234375 18.6015625 C-28.234375 34.1115625 -28.234375 49.6215625 -28.234375 65.6015625 C-35.164375 65.6015625 -42.094375 65.6015625 -49.234375 65.6015625 C-49.234375 44.1515625 -49.234375 22.7015625 -49.234375 0.6015625 C-42.634375 0.6015625 -36.034375 0.6015625 -29.234375 0.6015625 C-29.234375 1.9215625 -29.234375 3.2415625 -29.234375 4.6015625 C-28.53054688 4.1684375 -27.82671875 3.7353125 -27.1015625 3.2890625 C-18.51684139 -1.55245123 -9.45389881 -4.08755528 0 0 Z " fill="#E8E2D0" transform="translate(942.234375,116.3984375)"/>
<path d="M0 0 C6.93 0 13.86 0 21 0 C21 30.03 21 60.06 21 91 C14.73 91 8.46 91 2 91 C1.67 90.34 1.34 89.68 1 89 C0.278125 89.28875 -0.44375 89.5775 -1.1875 89.875 C-2.115625 90.24625 -3.04375 90.6175 -4 91 C-4.7425 91.350625 -5.485 91.70125 -6.25 92.0625 C-14.3946582 94.83908802 -22.59082169 94.50392609 -30.421875 90.87890625 C-38.28744141 86.2202738 -42.72799813 78.74874928 -45 70 C-46.26899242 56.89225401 -45.76720199 44.77757016 -38.25 33.625 C-32.71568402 26.90672588 -26.59356556 24.30317913 -18.0390625 23.14453125 C-11.73867666 22.8448985 -6.60100796 24.19949602 -1 27 C-0.67 18.09 -0.34 9.18 0 0 Z M-19 42 C-22.79376693 47.48335194 -23.60837964 52.58747576 -23.4375 59.125 C-23.44458984 59.89714844 -23.45167969 60.66929687 -23.45898438 61.46484375 C-23.39574691 67.17567324 -21.9660573 70.99917571 -18.8125 75.8125 C-15.77540179 77.80232296 -12.54525601 78.12336971 -9 78 C-5.43811608 77.0367668 -2.63671413 75.63671413 0 73 C0.44431767 68.9023644 0.41415363 64.798541 0.42553711 60.67871094 C0.43741992 58.6387469 0.48657004 56.60182371 0.53710938 54.5625 C0.54419922 53.27601563 0.55128906 51.98953125 0.55859375 50.6640625 C0.57204834 49.48279785 0.58550293 48.3015332 0.59936523 47.08447266 C0.26565706 43.81447468 0.26565706 43.81447468 -2.40820312 41.62817383 C-8.00585942 38.11171096 -13.59122017 37.94341513 -19 42 Z " fill="#E8E2D0" transform="translate(1175,91)"/>
<path d="M0 0 C6.93 0 13.86 0 21 0 C21.495 14.355 21.495 14.355 22 29 C25.3 27.35 28.6 25.7 32 24 C39.26400083 22.85117472 47.08084227 22.82578838 53.4921875 26.80859375 C58.20949562 30.53600043 60.50263274 35.26092827 62 41 C62.38691289 44.9129167 62.35077252 48.7899736 62.29296875 52.71875 C62.28872391 53.81723267 62.28447906 54.91571533 62.28010559 56.04748535 C62.26340661 59.5319136 62.22576996 63.01574861 62.1875 66.5 C62.17244185 68.87238744 62.15875543 71.24478401 62.14648438 73.6171875 C62.11353173 79.41168448 62.06180965 85.20574189 62 91 C55.07 91 48.14 91 41 91 C40.93941406 88.19371094 40.87882812 85.38742188 40.81640625 82.49609375 C40.75450426 79.76226407 40.69116336 77.02847123 40.62768555 74.29467773 C40.58451521 72.40245884 40.54282841 70.51020547 40.50268555 68.61791992 C40.44454681 65.88970576 40.38098064 63.16166228 40.31640625 60.43359375 C40.29969376 59.59477158 40.28298126 58.7559494 40.26576233 57.89170837 C40.12189324 52.11896573 39.84021097 46.52063292 38 41 C36.45997544 40.89043304 34.91760237 40.81370629 33.375 40.75 C32.51648438 40.70359375 31.65796875 40.6571875 30.7734375 40.609375 C26.7824503 41.17148587 24.99140157 42.26651289 22 45 C21.08574928 48.46981163 21.16235344 51.8812099 21.1953125 55.453125 C21.18160614 56.46848328 21.16789978 57.48384155 21.15377808 58.52996826 C21.11641142 61.77042682 21.12019762 65.00935618 21.125 68.25 C21.10687799 70.44794069 21.08607688 72.64586105 21.0625 74.84375 C21.00554502 80.23006428 21.00424224 85.61235469 21 91 C14.07 91 7.14 91 0 91 C0 60.97 0 30.94 0 0 Z " fill="#E8E2D0" transform="translate(398,91)"/>
<path d="M0 0 C4.92971008 3.50511611 7.973352 7.61242903 9.87890625 13.3359375 C10.09793874 15.90184756 10.22635832 18.37075607 10.2578125 20.9375 C10.27480698 21.65577972 10.29180145 22.37405945 10.30931091 23.11410522 C10.36218346 25.39629463 10.40262644 27.67846863 10.44140625 29.9609375 C10.48541698 32.25045746 10.53215494 34.53984165 10.58421326 36.82919312 C10.61602922 38.25033292 10.64296262 39.67159245 10.66444397 41.09292603 C10.7274671 44.10312139 10.91913558 46.45662549 11.87890625 49.3359375 C13.36390625 49.8309375 13.36390625 49.8309375 14.87890625 50.3359375 C14.87890625 55.2859375 14.87890625 60.2359375 14.87890625 65.3359375 C7.06056804 66.57694356 0.14003208 66.71196768 -6.68359375 62.2109375 C-7.48796875 61.5921875 -8.29234375 60.9734375 -9.12109375 60.3359375 C-9.6521875 60.68527344 -10.18328125 61.03460938 -10.73046875 61.39453125 C-11.436875 61.84957031 -12.14328125 62.30460937 -12.87109375 62.7734375 C-13.5671875 63.22589844 -14.26328125 63.67835938 -14.98046875 64.14453125 C-21.93805155 68.01690854 -33.22831224 67.56616274 -40.83984375 65.65234375 C-45.4126898 63.53300548 -48.25119205 60.42337326 -51.12109375 56.3359375 C-53.15548434 50.23276573 -53.20155738 42.85510245 -50.62109375 36.8984375 C-46.78122806 30.42705546 -39.9474856 27.86308086 -32.9765625 25.9609375 C-25.74781644 24.37872222 -18.52151317 23.3359375 -11.12109375 23.3359375 C-11.78109375 19.7059375 -12.44109375 16.0759375 -13.12109375 12.3359375 C-19.81698633 11.68194843 -19.81698633 11.68194843 -25.68359375 14.1484375 C-27.27257897 16.36252213 -27.27257897 16.36252213 -28.12109375 19.3359375 C-35.38109375 19.3359375 -42.64109375 19.3359375 -50.12109375 19.3359375 C-48.13971404 10.4197288 -46.60394517 5.86864996 -39.0234375 0.984375 C-28.30134468 -4.58710501 -10.86155474 -5.47935319 0 0 Z M-28.30859375 39.5234375 C-30.61322086 43.09958301 -30.74027653 45.15645371 -30.12109375 49.3359375 C-28.56296379 51.40863507 -27.65793334 52.22045457 -25.10546875 52.76953125 C-19.2645252 52.77974269 -15.95373685 51.6262477 -11.12109375 48.3359375 C-11.12109375 44.0459375 -11.12109375 39.7559375 -11.12109375 35.3359375 C-17.28891946 35.3359375 -23.16617951 35.99432969 -28.30859375 39.5234375 Z " fill="#E8E2D0" transform="translate(695.12109375,117.6640625)"/>
<path d="M0 0 C4.92971008 3.50511611 7.973352 7.61242903 9.87890625 13.3359375 C10.09793874 15.90184756 10.22635832 18.37075607 10.2578125 20.9375 C10.27480698 21.65577972 10.29180145 22.37405945 10.30931091 23.11410522 C10.36218346 25.39629463 10.40262644 27.67846863 10.44140625 29.9609375 C10.48541698 32.25045746 10.53215494 34.53984165 10.58421326 36.82919312 C10.61602922 38.25033292 10.64296262 39.67159245 10.66444397 41.09292603 C10.7274671 44.10312139 10.91913558 46.45662549 11.87890625 49.3359375 C13.36390625 49.8309375 13.36390625 49.8309375 14.87890625 50.3359375 C14.87890625 55.2859375 14.87890625 60.2359375 14.87890625 65.3359375 C7.06056804 66.57694356 0.14003208 66.71196768 -6.68359375 62.2109375 C-7.48796875 61.5921875 -8.29234375 60.9734375 -9.12109375 60.3359375 C-9.6521875 60.68527344 -10.18328125 61.03460938 -10.73046875 61.39453125 C-11.436875 61.84957031 -12.14328125 62.30460937 -12.87109375 62.7734375 C-13.5671875 63.22589844 -14.26328125 63.67835938 -14.98046875 64.14453125 C-21.93805155 68.01690854 -33.22831224 67.56616274 -40.83984375 65.65234375 C-45.4126898 63.53300548 -48.25119205 60.42337326 -51.12109375 56.3359375 C-53.15548434 50.23276573 -53.20155738 42.85510245 -50.62109375 36.8984375 C-46.78122806 30.42705546 -39.9474856 27.86308086 -32.9765625 25.9609375 C-25.74781644 24.37872222 -18.52151317 23.3359375 -11.12109375 23.3359375 C-11.78109375 19.7059375 -12.44109375 16.0759375 -13.12109375 12.3359375 C-19.81698633 11.68194843 -19.81698633 11.68194843 -25.68359375 14.1484375 C-27.27257897 16.36252213 -27.27257897 16.36252213 -28.12109375 19.3359375 C-35.38109375 19.3359375 -42.64109375 19.3359375 -50.12109375 19.3359375 C-48.13971404 10.4197288 -46.60394517 5.86864996 -39.0234375 0.984375 C-28.30134468 -4.58710501 -10.86155474 -5.47935319 0 0 Z M-28.30859375 39.5234375 C-30.61322086 43.09958301 -30.74027653 45.15645371 -30.12109375 49.3359375 C-28.56296379 51.40863507 -27.65793334 52.22045457 -25.10546875 52.76953125 C-19.2645252 52.77974269 -15.95373685 51.6262477 -11.12109375 48.3359375 C-11.12109375 44.0459375 -11.12109375 39.7559375 -11.12109375 35.3359375 C-17.28891946 35.3359375 -23.16617951 35.99432969 -28.30859375 39.5234375 Z " fill="#E8E2D0" transform="translate(258.12109375,117.6640625)"/>
<path d="M0 0 C6.93 0 13.86 0 21 0 C21.04898437 2.78308594 21.09796875 5.56617187 21.1484375 8.43359375 C21.20257791 11.15426622 21.25983388 13.87485673 21.31738281 16.59545898 C21.35546632 18.47397659 21.39035366 20.352562 21.421875 22.23120117 C21.46797713 24.94474386 21.52589285 27.65782792 21.5859375 30.37109375 C21.59748871 31.19959335 21.60903992 32.02809296 21.62094116 32.88169861 C21.75621306 38.32908346 22.15008997 43.82990371 24 49 C27.11888678 50.55944339 29.5454145 50.28316275 33 50 C36.93776128 48.57061505 36.93776128 48.57061505 40 46 C41.05176342 42.53210078 40.95444219 39.14875276 40.90234375 35.546875 C40.91463516 34.53151672 40.92692657 33.51615845 40.93959045 32.47003174 C40.9713658 29.2292896 40.9550296 25.99081412 40.9375 22.75 C40.95060608 20.55206215 40.96684444 18.35414057 40.98632812 16.15625 C41.03311678 10.76945145 41.0148499 5.38839108 41 0 C47.93 0 54.86 0 62 0 C62 21.45 62 42.9 62 65 C55.4 65 48.8 65 42 65 C42 63.68 42 62.36 42 61 C41.319375 61.433125 40.63875 61.86625 39.9375 62.3125 C31.18778997 67.33892917 23.83555445 68.37802955 14 67 C8.08027832 65.06792988 4.98107365 61.22183795 1.91015625 55.96484375 C0.20719756 52.28849945 -0.12369947 48.98498936 -0.11352539 44.95605469 C-0.11344986 43.95531921 -0.11337433 42.95458374 -0.11329651 41.92352295 C-0.10813522 40.85047913 -0.10297394 39.7774353 -0.09765625 38.671875 C-0.0962413 37.56773254 -0.09482635 36.46359009 -0.09336853 35.32598877 C-0.08777258 31.80063158 -0.07522079 28.27533798 -0.0625 24.75 C-0.05748448 22.35937592 -0.05292166 19.96875084 -0.04882812 17.578125 C-0.03780447 11.71872551 -0.02054257 5.85937354 0 0 Z " fill="#E8E2D0" transform="translate(279,117)"/>
<path d="M0 0 C7.26 0 14.52 0 22 0 C26.29 13.53 30.58 27.06 35 41 C39.84535432 25.73513907 39.84535432 25.73513907 44.3125 10.375 C44.80557182 8.59030818 45.30149778 6.80640152 45.80078125 5.0234375 C46.00872314 4.26981934 46.21666504 3.51620117 46.4309082 2.73974609 C47 1 47 1 48 0 C49.56172745 -0.08685603 51.12729344 -0.10702219 52.69140625 -0.09765625 C53.63564453 -0.09443359 54.57988281 -0.09121094 55.55273438 -0.08789062 C56.54595703 -0.07951172 57.53917969 -0.07113281 58.5625 -0.0625 C59.55958984 -0.05798828 60.55667969 -0.05347656 61.58398438 -0.04882812 C64.05605138 -0.03700005 66.52798665 -0.01967958 69 0 C67.60070146 7.13752873 65.4291164 13.7116655 62.859375 20.5078125 C62.25237762 22.13334549 62.25237762 22.13334549 61.63311768 23.79171753 C60.77853613 26.07703 59.92112235 28.36128516 59.06103516 30.64453125 C57.76260009 34.09154993 56.47229635 37.54151997 55.18359375 40.9921875 C52.81015993 47.33621033 50.41261779 53.67078421 48 60 C47.68796631 60.82189819 47.37593262 61.64379639 47.05444336 62.49060059 C46.25857282 64.57798375 45.45242969 66.66095913 44.640625 68.7421875 C44.21813477 69.83128418 43.79564453 70.92038086 43.36035156 72.04248047 C40.29853375 78.69913176 36.28266687 84.11822213 29.421875 87.1328125 C24.92726952 88.27185635 20.73858938 88.2153263 16.125 88.125 C14.80628906 88.11146484 14.80628906 88.11146484 13.4609375 88.09765625 C11.3071729 88.07424577 9.15354986 88.0383801 7 88 C7 82.72 7 77.44 7 72 C10.28776042 71.83723958 13.57552083 71.67447917 16.86328125 71.51171875 C19.92477527 71.23300499 19.92477527 71.23300499 21.85546875 69.76953125 C23.33245682 67.4859968 23.66703795 65.69912895 24 63 C23.47968388 60.61053324 23.47968388 60.61053324 22.44873047 58.23242188 C22.08439911 57.31376343 21.72006775 56.39510498 21.34469604 55.4486084 C20.93961823 54.46525513 20.53454041 53.48190186 20.1171875 52.46875 C19.70590607 51.44124634 19.29462463 50.41374268 18.87088013 49.35510254 C17.55094934 46.06507511 16.21343551 42.78253716 14.875 39.5 C13.99619487 37.32079643 13.11857764 35.14111341 12.2421875 32.9609375 C10.56860979 28.80052407 8.89097879 24.64178737 7.20996094 20.484375 C0 2.6219625 0 2.6219625 0 0 Z " fill="#E8E2D0" transform="translate(996,117)"/>
<path d="M0 0 C5.81461684 3.61211046 8.60940224 8.78490959 10.3125 15.3125 C10.69941289 19.2254167 10.66327252 23.1024736 10.60546875 27.03125 C10.60122391 28.12973267 10.59697906 29.22821533 10.59260559 30.35998535 C10.57590661 33.8444136 10.53826996 37.32824861 10.5 40.8125 C10.48494185 43.18488744 10.47125543 45.55728401 10.45898438 47.9296875 C10.42603173 53.72418448 10.37430965 59.51824189 10.3125 65.3125 C3.3825 65.3125 -3.5475 65.3125 -10.6875 65.3125 C-10.74808594 62.50621094 -10.80867187 59.69992188 -10.87109375 56.80859375 C-10.93299574 54.07476407 -10.99633664 51.34097123 -11.05981445 48.60717773 C-11.10298479 46.71495884 -11.14467159 44.82270547 -11.18481445 42.93041992 C-11.24295319 40.20220576 -11.30651936 37.47416228 -11.37109375 34.74609375 C-11.38780624 33.90727158 -11.40451874 33.0684494 -11.42173767 32.20420837 C-11.56560676 26.43146573 -11.84728903 20.83313292 -13.6875 15.3125 C-15.22752456 15.20293304 -16.76989763 15.12620629 -18.3125 15.0625 C-19.17101562 15.01609375 -20.02953125 14.9696875 -20.9140625 14.921875 C-24.9050497 15.48398587 -26.69609843 16.57901289 -29.6875 19.3125 C-30.60175072 22.78231163 -30.52514656 26.1937099 -30.4921875 29.765625 C-30.50589386 30.78098328 -30.51960022 31.79634155 -30.53372192 32.84246826 C-30.57108858 36.08292682 -30.56730238 39.32185618 -30.5625 42.5625 C-30.58062201 44.76044069 -30.60142312 46.95836105 -30.625 49.15625 C-30.68195498 54.54256428 -30.68325776 59.92485469 -30.6875 65.3125 C-37.6175 65.3125 -44.5475 65.3125 -51.6875 65.3125 C-51.6875 43.8625 -51.6875 22.4125 -51.6875 0.3125 C-45.0875 0.3125 -38.4875 0.3125 -31.6875 0.3125 C-31.6875 1.6325 -31.6875 2.9525 -31.6875 4.3125 C-30.99527344 3.879375 -30.30304687 3.44625 -29.58984375 3 C-20.4277492 -2.21478899 -10.03270858 -4.53994076 0 0 Z " fill="#E8E2D0" transform="translate(624.6875,116.6875)"/>
<path d="M0 0 C4.6889862 3.33395693 8.42990097 7.68481691 9.87890625 13.3359375 C9.87890625 15.3159375 9.87890625 17.2959375 9.87890625 19.3359375 C2.94890625 19.3359375 -3.98109375 19.3359375 -11.12109375 19.3359375 C-11.78109375 17.6859375 -12.44109375 16.0359375 -13.12109375 14.3359375 C-14.93302381 12.09268914 -14.93302381 12.09268914 -17.50390625 12.140625 C-18.86128906 12.17542969 -18.86128906 12.17542969 -20.24609375 12.2109375 C-21.61121094 12.23800781 -21.61121094 12.23800781 -23.00390625 12.265625 C-23.70257812 12.28882813 -24.40125 12.31203125 -25.12109375 12.3359375 C-25.12109375 14.6459375 -25.12109375 16.9559375 -25.12109375 19.3359375 C-20.11900586 22.1445532 -15.27040641 23.37326361 -9.74609375 24.6484375 C-1.67577046 26.64452203 4.49693361 28.6916793 9.54296875 35.62109375 C12.3927828 41.41238254 11.68334862 48.73332984 9.81640625 54.7734375 C4.93027296 61.23574282 -0.23134462 64.49730783 -8.12109375 66.3359375 C-11.79992357 66.73220798 -15.42399647 66.75689589 -19.12109375 66.7109375 C-20.054375 66.72253906 -20.98765625 66.73414063 -21.94921875 66.74609375 C-31.40722242 66.70646524 -38.5304191 64.73243712 -45.4609375 58.16015625 C-49.76420354 53.43162627 -50.20817082 49.72639804 -51.12109375 43.3359375 C-44.19109375 43.3359375 -37.26109375 43.3359375 -30.12109375 43.3359375 C-28.80109375 45.6459375 -27.48109375 47.9559375 -26.12109375 50.3359375 C-23.78142685 51.50577095 -22.28717848 51.5020616 -19.68359375 51.5234375 C-18.90113281 51.53761719 -18.11867188 51.55179688 -17.3125 51.56640625 C-14.82903388 51.47679814 -14.82903388 51.47679814 -12.12109375 49.3359375 C-11.87087805 46.25227879 -11.87087805 46.25227879 -12.12109375 43.3359375 C-12.90871094 43.09359375 -13.69632813 42.85125 -14.5078125 42.6015625 C-16.80157097 41.89579066 -19.09448056 41.18725644 -21.38671875 40.4765625 C-23.80758278 39.73713541 -26.23449559 39.01712199 -28.66796875 38.3203125 C-36.03662636 36.18102481 -41.09324743 34.44346399 -46.49609375 28.8984375 C-49.1729975 23.02984081 -49.39034201 16.25906847 -47.390625 10.078125 C-44.16098669 3.98794991 -38.8136208 0.48731825 -32.52734375 -1.8984375 C-22.60060006 -4.12967805 -9.25892954 -4.67087322 0 0 Z " fill="#E8E2D0" transform="translate(553.12109375,117.6640625)"/>
<path d="M0 0 C6.93 0 13.86 0 21 0 C21 5.94 21 11.88 21 18 C25.29 18 29.58 18 34 18 C34 22.95 34 27.9 34 33 C29.71 33 25.42 33 21 33 C21.14084126 37.39604543 21.28746734 41.79176686 21.4375 46.1875 C21.47681641 47.43337891 21.51613281 48.67925781 21.55664062 49.96289062 C21.59853516 51.16494141 21.64042969 52.36699219 21.68359375 53.60546875 C21.72025146 54.71043701 21.75690918 55.81540527 21.79467773 56.95385742 C21.98305094 59.74854534 22.24513961 62.30241703 23 65 C25.43387753 66.21693876 27.41838846 66.31959896 30.125 66.5625 C31.73375 66.706875 33.3425 66.85125 35 67 C35 72.61 35 78.22 35 84 C31.811978 84.08143481 28.62606526 84.14070764 25.4375 84.1875 C24.54224609 84.21263672 23.64699219 84.23777344 22.72460938 84.26367188 C15.61814244 84.34176492 10.88432641 83.35990343 5.25 78.75 C0.46688281 72.90396788 -0.44350718 67.7460204 -0.29296875 60.44140625 C-0.28872391 59.65225327 -0.28447906 58.86310028 -0.28010559 58.05003357 C-0.26344452 55.55382739 -0.22581779 53.05845808 -0.1875 50.5625 C-0.17243683 48.86003778 -0.15875129 47.15756279 -0.14648438 45.45507812 C-0.1135825 41.3030678 -0.06188951 37.1516753 0 33 C-2.97 33 -5.94 33 -9 33 C-9 28.05 -9 23.1 -9 18 C-6.03 18 -3.06 18 0 18 C0 12.06 0 6.12 0 0 Z " fill="#E8E2D0" transform="translate(356,99)"/>
<path d="M0 0 C6.93 0 13.86 0 21 0 C21 21.45 21 42.9 21 65 C14.07 65 7.14 65 0 65 C0 43.55 0 22.1 0 0 Z " fill="#E8E2D0" transform="translate(1100,117)"/>
<path d="M0 0 C7.26 0 14.52 0 22 0 C22 6.93 22 13.86 22 21 C14.74 21 7.48 21 0 21 C0 14.07 0 7.14 0 0 Z " fill="#E8E2D0" transform="translate(1064,161)"/>
<path d="M0 0 C7.26 0 14.52 0 22 0 C22 6.93 22 13.86 22 21 C14.74 21 7.48 21 0 21 C0 14.07 0 7.14 0 0 Z " fill="#E8E2D0" transform="translate(858,161)"/>
<path d="M0 0 C7.26 0 14.52 0 22 0 C22 6.93 22 13.86 22 21 C14.74 21 7.48 21 0 21 C0 14.07 0 7.14 0 0 Z " fill="#E8E2D0" transform="translate(472,161)"/>
<path d="M0 0 C7.26 0 14.52 0 22 0 C22 5.28 22 10.56 22 16 C14.74 16 7.48 16 0 16 C0 10.72 0 5.44 0 0 Z " fill="#E8E2D0" transform="translate(1100,91)"/>
</svg>
