<?xml version="1.0" encoding="UTF-8"?>
<svg version="1.1" xmlns="http://www.w3.org/2000/svg" width="120" height="120">
<path d="M0 0 C0.33 9.9 0.66 19.8 1 30 C2.65 27.36 4.3 24.72 6 22 C8.8125 21.5 8.8125 21.5 11 22 C8.36 20.35 5.72 18.7 3 17 C4.87729439 11.27872186 6.85220365 5.62518091 9 0 C13.91263297 0.48565953 17.23042387 2.9481362 21.125 5.75 C22.54130127 6.74661322 23.95798516 7.74268287 25.375 8.73828125 C26.49455078 9.53032959 26.49455078 9.53032959 27.63671875 10.33837891 C31.77148089 13.24552675 35.95024595 16.08823239 40.125 18.9375 C40.91793457 19.48051758 41.71086914 20.02353516 42.52783203 20.58300781 C47.20483314 23.79700466 47.20483314 23.79700466 52.09313965 26.67353821 C55 29 55 29 55.7215271 32.06256104 C55.70820343 33.26169128 55.69487976 34.46082153 55.68115234 35.69628906 C55.68246658 36.69202942 55.68246658 36.69202942 55.68380737 37.70788574 C55.67963769 39.89500989 55.63302796 42.07903923 55.5859375 44.265625 C55.57474283 45.78446782 55.56620392 47.30333234 55.56021118 48.82220459 C55.53733317 52.81437298 55.47842169 56.80522552 55.4119873 60.796875 C55.35054085 64.87221475 55.32319131 68.94776775 55.29296875 73.0234375 C55.22867492 81.01622797 55.12631086 89.00795018 55 97 C51.65910146 98.40891542 48.30087253 99.77071179 44.9375 101.125 C43.99455078 101.52332031 43.05160156 101.92164062 42.08007812 102.33203125 C34.15234375 105.48102679 34.15234375 105.48102679 29.81640625 104.2421875 C28.88699219 103.83226563 27.95757812 103.42234375 27 103 C27 105.64 27 108.28 27 111 C24.44113496 112.32002556 21.87832932 113.63113782 19.3125 114.9375 C18.2306543 115.49727539 18.2306543 115.49727539 17.12695312 116.06835938 C16.42119141 116.42607422 15.71542969 116.78378906 14.98828125 117.15234375 C14.34415283 117.48226318 13.70002441 117.81218262 13.03637695 118.15209961 C11 119 11 119 6 120 C5.67 94.26 5.34 68.52 5 42 C3.515 41.505 3.515 41.505 2 41 C1.92591023 47.06890175 1.87142641 53.13754097 1.83520508 59.20678711 C1.82010729 61.27193791 1.79962726 63.3370566 1.77368164 65.40209961 C1.73734205 68.36840739 1.7202837 71.33429171 1.70703125 74.30078125 C1.69154739 75.2258699 1.67606354 76.15095856 1.66011047 77.1040802 C1.65988388 77.96474594 1.65965729 78.82541168 1.65942383 79.7121582 C1.65276199 80.46938675 1.64610016 81.2266153 1.63923645 82.00679016 C2.09395812 84.51911631 3.14911191 85.31583199 5 87 C4.79195299 91.01621194 2.24935373 94.71957609 0.4375 98.25 C0.10814453 98.8996875 -0.22121094 99.549375 -0.56054688 100.21875 C-1.37007565 101.81434294 -2.18455042 103.40742483 -3 105 C-8.53636532 102.78545387 -13.76524219 99.85532244 -19 97 C-19 66.97 -19 36.94 -19 6 C-5 0 -5 0 0 0 Z M29 36 C29 52.17 29 68.34 29 85 C30.32 85.33 31.64 85.66 33 86 C33.10128827 79.36154183 33.17141794 72.72328234 33.21972656 66.08422852 C33.23986166 63.82503818 33.26717189 61.56590008 33.30175781 59.30688477 C33.35019162 56.06253179 33.37294976 52.81886683 33.390625 49.57421875 C33.41127014 48.56163498 33.43191528 47.54905121 33.45318604 46.50578308 C33.45348816 45.56503433 33.45379028 44.62428558 33.45410156 43.6550293 C33.46298401 42.82674118 33.47186646 41.99845306 33.48101807 41.14506531 C33.11076985 38.40669409 33.11076985 38.40669409 29 36 Z " fill="#FEFEFE" transform="translate(42,0)"/>
</svg>
