<?xml version="1.0" encoding="UTF-8"?>
<svg version="1.1" xmlns="http://www.w3.org/2000/svg" width="60" height="60">
<path d="M0 0 C0.33 4.29 0.66 8.58 1 13 C1.66 12.01 2.32 11.02 3 10 C2.34 9.67 1.68 9.34 1 9 C1.99 6.03 2.98 3.06 4 0 C9.03823596 0.478011 12.13876391 2.93739907 16.0625 5.875 C16.67416016 6.32230469 17.28582031 6.76960937 17.91601562 7.23046875 C19.61777756 8.47781425 21.3109499 9.73551037 23 11 C23.71953857 11.38148193 24.43907715 11.76296387 25.18041992 12.15600586 C27.53894792 14.54617921 27.45459527 16.4087646 27.45318604 19.67619324 C27.43254089 20.42629166 27.41189575 21.17639008 27.390625 21.94921875 C27.38496521 22.72183548 27.37930542 23.49445221 27.37347412 24.29048157 C27.35109327 26.75678629 27.30089703 29.22163492 27.25 31.6875 C27.22993706 33.36000505 27.21168592 35.03253289 27.1953125 36.70507812 C27.15122331 40.80394596 27.08218675 44.90172617 27 49 C25.21189234 49.69670416 23.41937948 50.38211189 21.625 51.0625 C20.62726562 51.44535156 19.62953125 51.82820313 18.6015625 52.22265625 C16 53 16 53 14 52 C14 53.32 14 54.64 14 56 C12.56570999 56.67354499 11.12742943 57.33859701 9.6875 58 C8.88699219 58.37125 8.08648438 58.7425 7.26171875 59.125 C5 60 5 60 2 60 C1.67 56.37 1.34 52.74 1 49 C0.34 49.99 -0.32 50.98 -1 52 C-4.37462715 51.45276317 -6.08235 50.9451 -9 49 C-9.36076355 46.97518921 -9.36076355 46.97518921 -9.34057617 44.45849609 C-9.34034958 43.51767181 -9.34012299 42.57684753 -9.33988953 41.60751343 C-9.32440567 40.58976837 -9.30892181 39.57202332 -9.29296875 38.5234375 C-9.28872391 37.48305328 -9.28447906 36.44266907 -9.28010559 35.37075806 C-9.26327482 32.03857853 -9.22561422 28.70699759 -9.1875 25.375 C-9.17245887 23.11980038 -9.15876947 20.86459131 -9.14648438 18.609375 C-9.11335699 13.07271145 -9.0631142 7.53639848 -9 2 C-5.62902617 0.50178941 -3.79557881 0 0 0 Z M15 19 C15 26.59 15 34.18 15 42 C15.33 42 15.66 42 16 42 C16 34.41 16 26.82 16 19 C15.67 19 15.34 19 15 19 Z M1 21 C1 27.93 1 34.86 1 42 C1.33 42 1.66 42 2 42 C2 35.07 2 28.14 2 21 C1.67 21 1.34 21 1 21 Z " fill="#FEFEFE" transform="translate(21,0)"/>
</svg>
